<defs>
<font horiz-adv-x="375" ><font-face
    font-family="vollkorn-italic"
    units-per-em="1000"
    panose-1="2 0 5 3 7 0 0 9 0 3"
    ascent="952"
    descent="-441"
    alphabetic="0" />
<missing-glyph horiz-adv-x="391" />
<glyph unicode=" " glyph-name="space" horiz-adv-x="180" />
<glyph unicode="!" glyph-name="exclam" horiz-adv-x="274" d="M276 662Q265 623 251 571T223 462T194 343T167 225Q141 222 123 231Q132 301 138 361T149 475T157 579T163 681Q186 686 216 695T263 714Q277 709 280 698T276 662ZM162 41Q157 18 144 5T108 -8Q81
-8 67 9T59 56Q63 76 78 89T115 103Q138 103 152 86T162 41Z" />
<glyph unicode="&quot;" glyph-name="quotedbl" horiz-adv-x="334" d="M223 669Q212 634 199 589T170 477Q158 477 148 479T129 487Q137 540 143 591T151 693Q164 695 180 701T208 714Q219 709 223 698T223 669ZM359 669Q348 634 335 589T306 477Q294 477 284
479T265 487Q273 540 279 591T287 693Q300 695 316 701T344 714Q355 709 359 698T359 669Z" />
<glyph unicode="#" glyph-name="numbersign" horiz-adv-x="566" d="M420 263H529Q529 235 517 214H410L363 -8Q337 -4 319 14L362 214H202L155 -8Q123 -3 112 18L153 213Q121 212 93 212T39 211Q39 237 51 263H164L202 442Q170 442 143 442T92 440Q92 451 94 465T104
492H213L260 714Q290 710 303 692L261 492H421L468 714Q497 708 511 694L468 492H571Q571 462 559 443H458L420 263ZM250 443L212 263H372L410 443H250Z" />
<glyph unicode="$" glyph-name="dollar" horiz-adv-x="460" d="M335 683Q374 678 404 667T454 638Q449 604 446 574T443 509Q418 499 388 504Q386 566 370 595T325 634Q311 568 299 507T275 386Q305 365 335 343T387 294T421 232T425 153Q419 116 400 86T351 35T284
3T202 -9L187 -93Q173 -92 161 -88T140 -74L153 -6Q102 1 67 19T2 63Q13 98 21 133T31 202Q43 207 58 207T85 204Q80 132 97 94T163 44L213 306Q186 325 160 346T114 394T86 455T85 535Q96 602 148 642T285 685L297 748Q312 748 324 744T345 729L335 683ZM276 638Q234
635 208 612T173 541Q167 501 185 472T234 417L276 638ZM211 39Q256 39 288 65T328 136Q332 160 328 180T314 217T288 248T254 277L211 39Z" />
<glyph unicode="%" glyph-name="percent" horiz-adv-x="685" d="M612 685Q641 670 646 644Q571 553 508 475T383 322T260 166T124 -9Q112 -3 104 7T93 30L612 685ZM251 677Q320 677 353 628T370 496Q357 434 317 397T222 359Q186 359 159 372T116 409T94 467T96
542Q108 603 150 640T251 677ZM241 635Q215 635 195 611T166 545Q154 480 170 441T227 401Q252 401 272 425T300 492Q313 557 297 596T241 635ZM511 309Q580 309 613 260T630 128Q617 66 577 29T482 -9Q446 -9 419 4T376 41T354 99T356 174Q368 235 410 272T511
309ZM501 267Q475 267 455 243T426 177Q414 112 430 73T487 33Q512 33 532 57T560 124Q573 189 557 228T501 267Z" />
<glyph unicode="&amp;" glyph-name="ampersand" horiz-adv-x="709" d="M617 88Q635 78 645 58Q627 27 602 9T541 -9Q528 -9 516 -7T492 1T465 18T432 49Q384 21 334 6T232 -9Q166 -9 124 9T58 56T29 123T30 200Q37 240 53 271T92 326T142 368T198 403Q174 459
170 502T173 588Q177 612 189 635T224 676T279 705T356 717Q395 717 423 707T468 678T491 637T492 589Q484 548 466 520T422 471T365 435T302 404Q317 376 337 344T384 271Q414 225 437 192T479 136Q502 162 518 192T542 257Q549 294 547 318T536 358T511 379T474
387Q466 404 468 424Q481 426 496 430T525 441T553 454T574 468Q616 452 626 413T625 311Q614 250 583 198T506 105Q530 79 544 72T571 64Q583 64 594 69T617 88ZM253 590Q248 563 252 531T281 447Q327 472 362 503T407 585Q415 630 398 651T343 673Q305 673 282
650T253 590ZM250 41Q292 41 331 51T405 80Q385 105 361 138T304 218Q276 259 255 294T218 359Q180 334 153 299T115 206Q109 172 115 142T138 90T183 54T250 41Z" />
<glyph unicode="&apos;" glyph-name="quotesingle" horiz-adv-x="198" d="M223 669Q212 634 199 589T170 477Q158 477 148 479T129 487Q137 540 143 591T151 693Q164 695 180 701T208 714Q219 709 223 698T223 669Z" />
<glyph unicode="(" glyph-name="parenleft" horiz-adv-x="298" d="M354 729Q310 682 277 634T219 531T175 414T145 280Q88 -52 182 -264Q170 -274 148 -271Q79 -152 56 -15T57 260Q69 327 88 387T139 504T214 620T318 741Q342 744 354 729Z" />
<glyph unicode=")" glyph-name="parenright" horiz-adv-x="295" d="M245 230Q232 156 211 92T157 -33T81 -151T-23 -271Q-46 -276 -59 -263Q-13 -206 22 -151T83 -37T128 88T160 230Q186 382 176 503T118 730Q132 742 151 741Q221 604 244 480T245 230Z" />
<glyph unicode="*" glyph-name="asterisk" horiz-adv-x="456" d="M350 664Q336 635 324 601T299 529Q335 535 368 542T439 561Q445 548 447 529T447 494Q415 496 377 497T302 500Q319 467 336 439T375 377Q364 366 348 359T314 350Q307 380 297 416T275 487Q249
461 228 437T182 381Q147 399 137 431Q163 447 194 468T256 511Q224 527 193 539T126 566Q134 606 159 624Q182 604 211 581T271 536Q276 572 278 605T283 677Q297 679 316 676T350 664Z" />
<glyph unicode="+" glyph-name="plus" horiz-adv-x="533" d="M511 291Q513 262 500 242H292Q281 183 271 126T250 8Q237 4 223 5T199 15L242 241Q187 241 134 241T36 239Q34 271 49 291H252L292 502Q319 513 344 502Q333 448 323 396T302 291H511Z" />
<glyph unicode="," glyph-name="comma" horiz-adv-x="211" d="M108 103Q125 93 130 70T128 8Q119 -40 84 -90T-1 -181Q-13 -181 -21 -175T-35 -160Q-8 -135 13 -108T43 -56T45 -14T6 12Q6 27 10 45T21 75Q42 77 67 85T108 103Z" />
<glyph unicode="-" glyph-name="hyphen" horiz-adv-x="343" d="M323 299Q322 277 319 263T310 234Q260 234 190 234T33 231Q35 254 38 269T50 299H323Z" />
<glyph unicode="." glyph-name="period" horiz-adv-x="187" d="M110 41Q105 18 92 5T56 -8Q29 -8 15 9T7 56Q11 76 26 89T63 103Q86 103 100 86T110 41Z" />
<glyph unicode="/" glyph-name="slash" horiz-adv-x="288" d="M332 717Q347 712 356 705T372 687Q276 514 185 341T5 -9Q-10 -5 -19 1T-35 21L332 717Z" />
<glyph unicode="0" glyph-name="zero" horiz-adv-x="592" d="M333 509Q394 509 441 489T518 433T558 346T557 234Q546 180 521 136T458 59T375 9T276 -9Q213 -9 165 12T86 70T44 160T45 277Q55 329 81 371T146 444T231 492T333 509ZM314 461Q246 461 201 415T141
291Q130 235 136 189T161 109T213 57T290 38Q349 38 394 81T459 217Q469 271 464 316T439 393T388 443T314 461Z" />
<glyph unicode="1" glyph-name="one" horiz-adv-x="317" d="M140 373Q150 423 136 439T80 460Q78 470 78 480T79 503Q134 500 197 500Q259 500 319 503Q318 491 317 481T310 460Q291 457 278 452T257 438T242 413T232 373L185 127Q180 101 180 86T187 61T208 47T244
40Q249 20 246 -3Q186 0 125 0Q96 0 64 0T6 -3Q6 22 14 40Q34 42 47 46T68 60T82 85T93 127L140 373Z" />
<glyph unicode="2" glyph-name="two" horiz-adv-x="425" d="M406 377Q401 353 391 333T364 294T324 255T270 212Q258 203 239 188T197 156T152 121T111 88Q131 90 149 90T187 90Q214 90 234 89T271 87Q288 87 302 99T327 151Q340 152 352 150T372 144Q366 111
363 79T359 21Q354 10 345 4T318 -3Q289 -3 254 -2T166 0Q120 0 79 0T-14 -3Q-25 15 -21 39Q4 59 34 82T94 128T151 172T200 209Q243 241 270 280T306 359Q315 407 296 437T234 467Q195 467 163 432T108 321Q83 321 64 330Q84 393 87 460Q129 485 171 497T260 509Q338
509 378 475T406 377Z" />
<glyph unicode="3" glyph-name="three" horiz-adv-x="422" d="M393 367Q385 327 349 289T252 218Q282 213 306 198T346 159T365 100T361 23Q351 -21 326 -56T263 -117T177 -157T74 -171Q41 -171 14 -164T-31 -143Q-30 -117 -10 -106Q4 -114 25 -118T79 -123Q150
-123 200 -87T265 16Q271 47 267 72T245 116T198 145T125 156Q118 162 115 173T115 196Q273 246 295 363Q304 409 286 437T226 465Q187 465 159 433T105 321Q91 319 77 321T52 328Q63 357 68 391T75 458Q108 483 150 496T238 509Q279 509 311 500T363 472T392 427T393
367Z" />
<glyph unicode="4" glyph-name="four" horiz-adv-x="459" d="M381 85Q401 85 413 70Q405 55 399 37T390 0H310L282 -153Q239 -156 203 -171Q189 -162 193 -136L218 -1Q135 -2 81 -3T-9 -6Q-17 3 -19 12T-22 36Q76 151 169 268T355 506Q368 506 380 504T400 497L325
85H381ZM257 215Q266 265 272 296T287 353Q268 327 242 293T173 204Q149 174 126 145T76 85H233L257 215Z" />
<glyph unicode="5" glyph-name="five" horiz-adv-x="404" d="M122 503Q164 501 205 501T295 500Q329 500 344 516T363 553Q388 556 409 546Q401 520 397 490T391 428Q380 410 355 410Q298 410 244 410T138 405L107 303Q168 296 217 274T298 218T344 140T348 45Q339
-3 314 -43T250 -111T163 -155T56 -171Q28 -171 1 -164T-47 -143Q-44 -119 -27 -106Q-9 -114 12 -118T66 -123Q100 -123 131 -112T187 -81T229 -32T253 30Q270 112 219 161T59 221Q42 230 41 249L122 503Z" />
<glyph unicode="6" glyph-name="six" horiz-adv-x="477" d="M479 638Q487 625 483 604Q343 578 263 515T150 357Q182 379 211 387T274 395Q320 395 355 380T411 337T439 270T437 182Q429 139 409 104T361 43T296 5T218 -9Q164 -9 125 11T63 69T34 161T41 283Q56
361 96 424T194 534T326 607T479 638ZM133 289Q122 232 123 186T138 106T175 55T231 37Q272 37 303 72T345 165Q359 243 331 289T245 336Q211 336 187 330T137 309L133 289Z" />
<glyph unicode="7" glyph-name="seven" horiz-adv-x="404" d="M197 411Q175 411 160 409T133 400T111 380T91 346Q64 346 51 358Q63 391 72 429T87 503Q108 502 132 502T181 501T227 500T267 500Q285 500 300 500T332 500T369 501T417 503Q429 494 431 471Q377
393 341 340T279 248T239 184T212 136Q198 110 189 85T174 31T163 -32T156 -108Q136 -118 114 -136T79 -170Q70 -168 61 -156T51 -110Q51 -73 63 -31T108 70T197 211T339 411H197Z" />
<glyph unicode="8" glyph-name="eight" horiz-adv-x="451" d="M447 490Q442 465 429 445T398 407T358 377T313 351Q380 295 399 243T406 127Q400 96 382 71T337 28T274 1T197 -9Q94 -9 46 36T14 169Q25 224 65 263T179 339Q126 381 109 422T103 514Q108 538 123
560T164 600T222 627T298 637Q385 637 422 597T447 490ZM277 378Q312 398 332 422T360 482Q366 510 362 531T348 567T321 588T285 595Q256 595 231 577T197 523Q194 505 194 489T202 455T228 419T277 378ZM314 121Q319 147 318 169T305 214T272 260T215 312Q161
284 135 251T101 172Q94 135 98 109T117 66T153 41T204 33Q246 33 276 53T314 121Z" />
<glyph unicode="9" glyph-name="nine" horiz-adv-x="474" d="M264 509Q319 509 358 489T420 430T448 338T441 217Q425 135 385 66T285 -54T152 -135T-6 -170Q-13 -159 -13 -136Q124 -112 205 -45T324 120Q294 100 266 93T206 85Q110 85 69 148T48 318Q56 361 75
396T123 457T187 495T264 509ZM349 211Q359 268 357 314T343 394T307 445T251 463Q210 463 180 428T139 329Q131 288 135 255T152 196T186 158T235 144Q267 144 291 149T340 169Q346 190 349 211Z" />
<glyph unicode=":" glyph-name="colon" horiz-adv-x="188" d="M175 369Q170 346 157 333T121 320Q94 320 80 337T72 384Q76 404 91 417T128 431Q151 431 165 414T175 369ZM116 73Q111 50 98 37T62 24Q35 24 21 41T13 88Q17 108 32 121T69 135Q92 135 106 118T116 73Z" />
<glyph unicode=";" glyph-name="semicolon" horiz-adv-x="211" d="M189 369Q184 346 171 333T135 320Q108 320 94 337T86 384Q90 404 105 417T142 431Q165 431 179 414T189 369ZM108 103Q125 93 130 70T128 8Q119 -40 84 -90T-1 -181Q-13 -181 -21 -175T-35 -160Q-8
-135 13 -108T43 -56T45 -14T6 12Q6 27 10 45T21 75Q42 77 67 85T108 103Z" />
<glyph unicode="&lt;" glyph-name="less" horiz-adv-x="435" d="M381 14Q382 0 378 -15T365 -38Q320 2 280 37T200 106T120 172T37 240Q35 251 37 264T51 291L444 563Q458 560 468 553T484 534L86 260L381 14Z" />
<glyph unicode="=" glyph-name="equal" horiz-adv-x="505" d="M495 362Q493 332 479 310Q431 310 377 310T268 310T157 309T50 307Q48 341 63 362H495ZM467 197Q465 167 451 145Q403 145 349 145T240 145T129 144T22 142Q20 176 35 197H467Z" />
<glyph unicode="&gt;" glyph-name="greater" horiz-adv-x="450" d="M416 283Q422 270 422 254T418 224Q358 189 308 159T209 100T112 38T5 -31Q-12 -11 -5 20L377 256L71 541Q79 551 92 557T118 565L416 283Z" />
<glyph unicode="?" glyph-name="question" horiz-adv-x="449" d="M161 671Q178 686 217 700T303 714Q378 714 415 675T440 569Q433 537 418 512T382 466T339 424T296 381T260 331T238 269Q235 257 234 236T234 201Q225 196 218 195T201 193Q188 204 181 238T182
315Q192 365 216 399T267 460T317 514T346 576Q354 617 341 645T288 673Q254 673 229 644T183 544Q167 544 158 546T139 554Q144 572 148 586T154 614T158 640T161 671ZM230 41Q225 18 212 5T176 -8Q149 -8 135 9T127 56Q131 76 146 89T183 103Q206 103 220 86T230
41Z" />
<glyph unicode="@" glyph-name="at" horiz-adv-x="808" d="M473 147Q459 119 439 92T396 42T346 5T291 -9Q241 -9 220 41T221 202Q233 260 258 308T318 392T397 447T490 467Q504 467 519 465T546 458Q561 458 577 460T603 467Q607 465 610 461T615 447T614 419T605
371L555 147Q549 118 548 102T548 77T555 66T569 64Q599 64 626 80T675 125T714 195T739 287Q753 365 740 426T691 531T598 596T467 619Q398 619 338 594T229 524T148 414T101 271Q84 175 97 96T149 -39T251 -126T399 -157Q484 -157 555 -129T684 -53Q706 -57 710
-78Q653 -134 573 -168T384 -202Q288 -202 215 -169T96 -75T35 71T37 260Q52 350 92 423T190 549T322 631T480 660Q565 660 629 635T735 562T790 446T790 291Q779 227 754 173T694 78T615 14T524 -9Q490 -9 475 7T456 48T459 99T474 147H473ZM526 406Q500 416 465
416Q434 416 410 404T368 369T338 316T318 248Q300 163 308 118T347 72Q360 72 381 90T426 142T471 225T509 336L526 406Z" />
<glyph unicode="A" glyph-name="A" horiz-adv-x="687" d="M132 143Q115 114 108 96T102 66T116 49T147 40Q151 19 150 -3Q126 -1 104 -1T58 0Q32 0 14 0T-27 -3Q-27 8 -26 19T-19 40Q-5 44 6 51T28 70T52 102T82 151Q159 282 233 412T381 676Q390 680 401 681T420
682Q459 545 495 408T564 132Q571 104 577 88T589 62T604 48T623 40Q626 29 626 19T626 -3Q601 -1 570 -1T515 0Q489 0 460 0T401 -3Q401 8 402 19T409 40Q431 43 444 47T464 61T470 84T464 122L441 219Q378 219 306 218T174 215L132 143ZM429 265Q418 311 406
356T381 447Q373 476 368 498T357 552Q342 521 329 497T299 440Q276 396 252 353T203 265H429Z" />
<glyph unicode="B" glyph-name="B" horiz-adv-x="591" d="M189 554Q193 579 192 594T184 618T163 630T130 636Q128 647 127 657T128 679Q163 677 187 677T238 676Q274 676 310 677T380 679Q485 679 534 641T568 512Q557 456 511 416T397 366Q493 361 535 313T559
170Q543 93 474 47T293 0Q264 0 230 0T160 0T90 -1T25 -3Q26 22 33 40Q56 43 70 48T93 65T107 95T117 143L189 554ZM281 376Q362 376 407 410T464 502Q477 570 443 603T342 636Q332 636 321 635T296 630L252 376H281ZM210 133Q204 102 204 84T213 57T239 45T283
42Q348 42 393 76T450 165Q468 255 426 293T269 331H244L210 133Z" />
<glyph unicode="C" glyph-name="C" horiz-adv-x="615" d="M444 685Q507 685 556 671T656 626Q643 592 636 555T623 475Q598 465 569 473Q576 526 571 559T549 611T508 637T451 644Q387 644 336 620T247 553T187 454T157 333Q151 277 159 226T192 137T258 75T358
52Q413 52 463 67T558 110Q572 96 574 72Q515 30 455 11T331 -9Q254 -9 197 17T105 89T56 196T51 328Q63 422 102 489T195 600T315 664T444 685Z" />
<glyph unicode="D" glyph-name="D" horiz-adv-x="725" d="M190 554Q194 579 193 594T184 618T163 631T130 637Q127 648 127 658T128 679Q160 677 197 677T266 676Q298 676 330 677T392 679Q437 679 482 673T567 652T640 611T694 546T721 451T713 323Q698 240 661
180T567 79T438 20T279 0H276Q249 0 217 0T152 0T87 -1T25 -3Q27 22 33 40Q55 43 69 48T93 65T107 95T118 143L190 554ZM211 133Q206 105 206 88T213 62T237 49T283 45Q344 45 397 60T493 107T565 191T609 315Q627 408 614 469T565 568T478 620T367 636Q347 636
330 634T296 628L211 133Z" />
<glyph unicode="E" glyph-name="E" horiz-adv-x="549" d="M242 364H283Q314 364 336 367T373 380T396 405T409 446Q422 448 432 448T457 447Q451 422 446 399T436 336Q431 300 429 273T424 221Q410 223 399 225T378 234Q382 284 361 301T279 319H234L204 143Q199
111 199 92T207 63T232 49T277 45H281Q327 45 357 53T407 78T443 118T473 172Q487 170 498 165T518 150Q501 118 487 80T464 -3Q419 -1 373 -1T271 0Q198 0 139 0T19 -3Q19 20 26 40Q49 43 63 48T86 65T100 95T110 143L182 554Q186 579 186 594T179 617T161 629T129
636Q127 646 127 656T128 679Q180 677 224 677T295 676Q353 676 416 676T558 679Q553 641 551 596T551 516Q532 508 501 509Q500 541 496 564T477 602T435 624T359 631H287L242 364Z" />
<glyph unicode="F" glyph-name="F" horiz-adv-x="516" d="M187 554Q191 577 191 591T185 615T166 628T130 636Q125 657 128 679Q160 677 200 677T300 676Q358 676 421 676T563 679Q558 641 556 596T556 516Q537 508 506 509Q505 541 501 564T482 602T440 624T364
631H292L243 342H291Q322 342 344 346T381 359T404 385T417 426Q430 428 440 428T465 427Q459 402 454 379T444 316Q439 280 437 253T432 201Q418 203 407 205T386 214Q390 264 369 281T287 299H236L209 142Q204 113 203 95T209 67T233 50T280 40Q283 30 283 21T283
-3Q245 -1 218 -1T156 0Q119 0 89 0T25 -3Q26 22 33 40Q55 44 69 49T91 65T104 91T114 132L187 554Z" />
<glyph unicode="G" glyph-name="G" horiz-adv-x="665" d="M453 685Q531 685 585 671T687 626Q674 591 667 556T654 476Q631 466 600 474Q606 529 599 562T574 614T527 638T461 644Q395 644 342 622T251 558T189 459T158 333Q152 278 158 226T186 132T248 65T349
40Q379 40 403 43T453 56Q464 60 471 65T484 81T493 107T502 151Q510 195 512 220T508 259T486 277T442 284Q438 305 441 327Q474 325 503 325T564 324Q579 324 592 324T618 324T647 325T681 327Q680 302 672 284Q656 282 646 278T628 262T614 225T600 161Q592
121 591 101T596 66Q548 34 477 13T321 -9Q247 -9 192 16T103 86T55 192T51 328Q63 423 102 490T196 601T318 665T453 685Z" />
<glyph unicode="H" glyph-name="H" horiz-adv-x="756" d="M588 549Q592 574 591 590T583 615T563 628T528 636Q526 646 526 656T527 679Q582 676 647 676Q709 676 769 679Q768 667 767 657T760 636Q741 633 728 628T707 614T692 589T682 549L609 127Q604 102 604
86T612 61T632 48T668 40Q673 20 670 -3Q610 0 549 0Q520 0 487 0T428 -3Q428 22 436 40Q456 42 469 46T491 60T505 86T515 127L549 325Q518 325 478 325T395 325T313 323T243 320L210 127Q205 102 205 86T213 61T233 48T269 40Q274 20 271 -3Q211 0 150 0Q121
0 88 0T29 -3Q29 22 37 40Q57 42 70 46T92 60T106 86T116 127L189 549Q193 574 192 590T184 615T164 628T129 636Q127 646 127 656T128 679Q183 676 248 676Q310 676 370 679Q369 667 368 657T361 636Q342 633 329 628T308 614T293 589T283 549L252 368H557L588
549Z" />
<glyph unicode="I" glyph-name="I" horiz-adv-x="357" d="M189 549Q193 574 192 590T184 615T164 628T129 636Q127 646 127 656T128 679Q183 676 248 676Q310 676 370 679Q369 667 368 657T361 636Q342 633 329 628T308 614T293 589T283 549L210 127Q205 102 205
86T213 61T233 48T269 40Q274 20 271 -3Q211 0 150 0Q121 0 88 0T29 -3Q29 22 37 40Q57 42 70 46T92 60T106 86T116 127L189 549Z" />
<glyph unicode="J" glyph-name="J" horiz-adv-x="336" d="M200 554Q204 575 204 589T197 613T177 628T140 636Q135 653 138 679Q159 677 190 677T254 676Q275 676 291 676T321 676T349 677T381 679Q380 654 373 636Q353 633 340 628T317 612T302 586T292 544L218
120Q206 50 191 -3T149 -100T77 -179T-36 -249Q-44 -244 -48 -235T-52 -215Q-21 -193 5 -169T52 -114T87 -47T110 39L200 554Z" />
<glyph unicode="K" glyph-name="K" horiz-adv-x="640" d="M449 546Q475 571 487 587T502 613T498 629T477 636Q475 647 473 657T473 679Q503 677 526 677T582 676Q610 676 630 676T680 679Q680 670 680 658T675 636Q654 633 637 629T603 614T565 588T517 547L330
371Q372 326 407 270T480 133Q496 98 509 86T537 74Q547 74 553 77T571 90Q590 80 601 58Q575 26 549 9T485 -9Q454 -7 434 12T396 77Q361 167 326 229T247 339L210 127Q205 102 205 86T210 61T228 47T259 40Q264 20 261 -3Q231 -1 205 -1T150 0Q121 0 88 0T29
-3Q29 22 37 40Q57 42 70 46T92 60T106 86T116 127L189 549Q193 574 192 590T184 615T164 628T129 636Q127 646 127 656T128 679Q183 676 248 676Q310 676 370 679Q369 667 368 657T361 636Q342 633 329 628T308 614T293 589T283 549L250 357L449 546Z" />
<glyph unicode="L" glyph-name="L" horiz-adv-x="545" d="M287 45Q329 45 357 51T407 73T445 112T480 172Q494 170 504 165T524 150Q491 86 471 -3Q457 -2 435 -2T388 -1T334 0T279 0Q250 0 218 0T153 0T88 -1T25 -3Q26 8 27 18T32 40Q54 42 68 47T92 64T106 95T116
143L188 554Q196 601 182 616T130 636Q128 646 128 657T128 679Q156 677 185 677T246 676Q277 676 311 676T375 678Q375 654 367 636Q344 633 330 628T306 613T290 585T280 541L209 133Q204 105 204 88T212 62T236 49T281 45H287Z" />
<glyph unicode="M" glyph-name="M" horiz-adv-x="883" d="M797 530Q785 315 770 163Q766 126 767 104T774 69T791 50T820 40Q822 30 822 19T822 -3Q799 -1 766 -1T700 0Q664 0 635 0T580 -3Q580 19 588 40Q612 44 627 50T652 70T666 105T674 160Q682 241 688 328T700
509Q630 378 556 250T405 -4Q395 -8 385 -8T364 -9Q332 123 296 254T218 519Q197 430 175 347T135 198Q122 151 118 123T118 78T137 53T177 40Q179 29 179 19T179 -3Q148 -1 122 -1T76 0Q53 0 31 0T-27 -3Q-27 7 -26 18T-19 40Q1 45 15 53T39 78T60 121T82 190Q108
278 131 366T176 546Q182 573 182 589T177 615T159 629T126 636Q124 648 124 658T125 679Q148 677 166 677T202 676Q222 676 238 676T274 679Q318 538 356 399T428 120Q509 257 586 396T739 679Q761 677 775 677T804 676Q819 676 838 676T877 679Q877 656 870 636Q850
634 837 629T816 611T804 580T797 530Z" />
<glyph unicode="N" glyph-name="N" horiz-adv-x="714" d="M191 601Q180 620 167 627T130 636Q125 654 128 679Q143 677 157 677T188 676Q231 676 257 679Q336 551 415 417T566 151Q597 323 626 499Q632 538 633 563T628 603T608 625T572 636Q570 646 570 656T571
679Q593 677 617 677T662 676Q685 676 712 676T759 679Q759 670 757 658T751 636Q734 631 723 623T703 598T688 555T675 489Q655 364 634 242T590 -4Q582 -7 571 -8T549 -9Q473 128 395 262T234 531Q220 443 205 357T172 182Q164 142 163 117T168 75T188 52T226
40Q231 23 228 -3Q198 -1 169 -1T119 0Q96 0 77 0T24 -3Q25 21 31 40Q50 43 63 50T87 73T104 112T119 172Q139 278 157 384T194 596L191 601Z" />
<glyph unicode="O" glyph-name="O" horiz-adv-x="721" d="M426 685Q498 685 557 660T655 585T708 463T704 296Q692 233 660 178T581 81T471 15T337 -9Q262 -9 203 19T107 97T56 218T59 375Q71 440 104 496T186 595T296 661T426 685ZM407 641Q362 641 322 621T250
565T196 482T163 382Q149 311 155 248T186 138T253 63T355 35Q404 35 445 54T517 109T570 191T602 294Q616 370 607 434T571 544T502 615T407 641Z" />
<glyph unicode="P" glyph-name="P" horiz-adv-x="563" d="M187 554Q191 577 191 591T185 615T166 628T130 636Q125 657 128 679Q142 678 160 678T198 677T235 676T266 676Q276 676 292 676T326 677T365 678T403 679Q512 679 559 620T586 455Q577 408 554 371T497
307T419 266T325 251Q282 251 260 263Q259 271 262 284T269 303Q279 300 292 298T320 296Q388 296 431 335T490 452Q507 540 476 587T356 635Q340 635 325 634T292 628L209 142Q204 113 203 95T209 67T233 50T280 40Q283 30 283 21T283 -3Q245 -1 218 -1T156 0Q119
0 89 0T25 -3Q26 22 33 40Q55 44 69 49T91 65T104 91T114 132L187 554Z" />
<glyph unicode="Q" glyph-name="Q" horiz-adv-x="720" d="M721 -120Q731 -124 738 -133T749 -153Q743 -163 732 -174T706 -196T673 -212T633 -219Q592 -219 561 -202T498 -134Q468 -85 433 -51T337 -9Q262 -9 203 19T107 97T56 218T59 375Q71 440 104 496T186
595T296 661T426 685Q498 685 557 660T655 585T708 463T704 296Q695 246 673 201T617 118T542 52T449 8Q492 -6 532 -33T610 -93Q642 -122 658 -130T691 -136Q700 -135 708 -131T721 -120ZM163 382Q149 311 155 248T186 138T253 63T355 35Q404 35 445 54T517 109T570
191T602 294Q616 370 607 434T571 544T502 615T407 641Q362 641 322 621T250 565T196 482T163 382Z" />
<glyph unicode="R" glyph-name="R" horiz-adv-x="650" d="M190 554Q197 597 184 614T129 636Q125 655 128 679Q165 677 193 677T256 676Q298 676 339 677T421 679Q529 679 578 631T611 495Q598 428 539 384T386 322Q398 306 408 290T429 255T451 210T475 152Q492
110 507 92T537 74Q547 74 553 77T571 90Q590 80 601 58Q575 26 549 9T485 -9Q443 -9 423 23T385 116Q366 178 346 222T299 306Q283 304 268 304T241 306L209 122Q204 97 204 82T210 59T228 47T258 40Q260 29 260 19T260 -3Q241 -2 227 -2T199 -1T173 0T144 0Q109
0 84 0T29 -3Q29 8 30 19T37 40Q59 42 72 47T94 63T107 90T117 132L190 554ZM249 353Q260 351 269 351T289 351Q331 351 368 360T436 388T486 433T513 497Q526 566 491 601T378 636Q330 636 296 627L249 353Z" />
<glyph unicode="S" glyph-name="S" horiz-adv-x="460" d="M298 685Q350 685 389 672T454 638Q449 604 446 574T443 509Q418 499 388 504Q386 582 361 610T291 639Q242 639 212 617T173 541Q167 501 185 472T235 417T303 367T370 312T417 244T425 153Q419 117 400
87T351 36T286 3T209 -9Q171 -9 141 -4T86 10T41 33T2 63Q13 98 21 133T31 202Q43 207 58 207T85 204Q80 116 107 78T211 39Q256 39 288 65T328 136Q336 179 319 209T271 264T204 312T137 366T91 436T85 535Q97 604 152 644T298 685Z" />
<glyph unicode="T" glyph-name="T" horiz-adv-x="545" d="M242 637Q215 637 195 630T160 608T133 568T110 510Q95 510 83 512T63 524Q68 540 73 559T83 599T92 640T99 679Q141 677 208 677T350 676Q428 676 497 676T609 679Q603 644 600 604T596 521Q585 515 574
514T548 513Q548 547 544 571T528 609T496 630T445 637H395L305 122Q301 101 301 87T308 63T330 49T372 40Q377 19 374 -3Q342 -1 309 -1T246 0Q213 0 178 0T115 -3Q115 22 122 41Q146 44 162 49T187 64T202 90T213 132L301 637H242Z" />
<glyph unicode="U" glyph-name="U" horiz-adv-x="635" d="M150 554Q154 577 154 592T151 616T136 629T109 636Q105 653 108 679Q143 677 166 677T219 676Q251 676 276 676T339 679Q338 667 337 657T330 636Q307 634 292 630T268 615T253 588T242 544L193 260Q183
203 187 162T209 95T255 56T321 44Q395 44 443 96T509 246L556 514Q562 546 562 566T556 600T537 621T502 636Q498 655 501 679Q533 677 556 677T600 676Q612 676 622 676T644 676T669 677T700 679Q700 657 691 636Q670 629 656 621T633 599T618 563T605 504L561
255Q537 119 474 55T301 -9Q174 -9 126 61T99 256L150 554Z" />
<glyph unicode="V" glyph-name="V" horiz-adv-x="655" d="M631 676Q656 676 676 676T725 679Q725 657 716 636Q704 630 695 623T676 603T653 567T622 510Q557 383 489 258T343 0Q335 -5 324 -6T302 -6Q285 67 268 140T234 282T201 413T171 529Q162 561 156 581T142
612T126 628T104 637Q100 655 103 679Q137 677 162 677T218 676Q251 676 279 676T343 679Q343 670 341 658T334 635Q307 632 291 628T268 612T263 579T274 523Q299 432 322 338T367 141Q423 236 473 329T571 522Q585 552 592 571T596 602T580 622T541 636Q537 655
540 679Q561 677 581 677T631 676Z" />
<glyph unicode="W" glyph-name="W" horiz-adv-x="963" d="M938 676Q963 676 988 676T1033 679Q1033 657 1024 636Q1012 631 1002 623T980 598T956 555T925 486Q872 364 817 243T698 0Q689 -5 678 -6T657 -5Q648 56 637 124T612 261T583 398T551 528Q490 394 423
261T287 0Q279 -5 267 -6T244 -6Q221 151 199 284T157 529Q151 563 147 583T137 613T124 628T106 637Q100 656 103 679Q142 677 167 677T214 676Q239 676 270 676T329 679Q329 668 328 657T322 635Q294 630 278 624T256 606T249 575T255 525Q262 484 270 437T285
342T300 244T315 148Q382 278 445 410T572 678Q589 686 615 683Q631 623 646 558T676 425T702 290T725 158Q769 244 807 328T881 499Q897 538 903 562T907 600T889 622T849 636Q845 656 848 679Q868 677 890 677T938 676Z" />
<glyph unicode="X" glyph-name="X" horiz-adv-x="617" d="M103 679Q143 677 167 677T219 676Q249 676 277 676T343 679Q343 656 334 635Q308 631 294 624T276 605T276 574T296 525Q330 454 362 384Q388 416 414 451T463 518Q485 550 494 571T502 605T491 625T463
636Q459 657 462 679Q486 677 506 677T547 676Q571 676 596 676T647 679Q647 670 645 659T638 636Q624 634 613 629T589 611T560 576T519 517Q487 471 453 426T383 335Q403 289 422 243T462 149Q476 114 486 95T507 64T529 48T555 39Q559 22 556 -3Q534 -2 518
-2T489 -1T463 0T436 0Q404 0 371 0T316 -3Q316 18 325 41Q349 44 362 49T379 67T378 99T359 152Q346 185 332 218T304 283Q276 245 250 212T194 143Q156 95 160 72T197 40Q199 29 199 19T198 -3Q166 -1 143 -1T93 0Q64 0 41 0T-11 -3Q-11 19 -2 40Q11 44 23 50T50
67T83 96T126 142Q167 188 206 235T283 332Q261 380 239 427T191 524Q173 560 162 581T143 613T126 628T104 637Q100 657 103 679Z" />
<glyph unicode="Y" glyph-name="Y" horiz-adv-x="583" d="M277 293Q249 367 223 432T176 541Q163 569 154 586T138 614T123 628T104 637Q102 648 102 657T103 679Q131 677 159 677T214 676Q244 676 273 676T340 679Q340 667 338 657T331 635Q282 628 269 612T273
556Q293 511 314 457T354 347Q374 374 393 400T429 449T459 492T482 524Q519 579 517 603T469 636Q465 655 468 679Q493 677 514 677T564 676Q588 676 608 676T653 679Q653 657 644 636Q635 633 628 628T608 610T578 573T530 508Q497 461 457 407T372 296L341 122Q337
101 337 87T344 64T366 50T408 40Q413 19 410 -3Q378 -1 345 -1T282 0Q249 0 214 0T151 -3Q151 22 158 41Q183 45 198 50T223 65T238 91T249 132L277 293Z" />
<glyph unicode="Z" glyph-name="Z" horiz-adv-x="540" d="M259 45Q305 45 335 49T387 66T425 105T459 172Q490 166 509 148Q496 117 484 77T465 -3Q429 -2 397 -2T334 -1T273 0T208 0Q173 0 145 0T92 0T42 -1T-13 -3Q-23 14 -22 38Q100 185 214 332T439 632H307Q274
632 250 627T206 608T170 569T138 503Q105 506 86 522Q99 551 111 594T129 679Q159 678 186 678T240 677T296 676T361 676Q386 676 409 676T456 676T505 677T560 679Q573 664 573 638Q460 484 347 338T114 45H259Z" />
<glyph unicode="[" glyph-name="bracketleft" horiz-adv-x="300" d="M140 742Q157 741 182 741T234 740T287 740T331 742Q341 726 336 704Q295 701 269 697T226 683T201 656T187 610L54 -147Q50 -171 52 -186T67 -210T103 -223T162 -229Q166 -237 166 -247T162
-269Q148 -268 121 -268T64 -267T6 -267T-38 -269L140 742Z" />
<glyph unicode="\" glyph-name="backslash" horiz-adv-x="292" d="M247 0Q237 -5 224 -7T198 -8Q175 173 149 351T94 709Q119 720 144 715L247 0Z" />
<glyph unicode="]" glyph-name="bracketright" horiz-adv-x="299" d="M162 -269Q142 -268 115 -268T60 -267T7 -267T-37 -269Q-38 -259 -36 -248T-27 -229Q11 -228 36 -224T76 -213T100 -192T112 -157L247 610Q252 639 250 656T235 682T198 696T134 704Q134 715
137 725T147 742Q165 741 191 741T244 740T297 740T340 742L162 -269Z" />
<glyph unicode="^" glyph-name="asciicircum" horiz-adv-x="477" d="M343 685Q357 694 370 695T394 694Q406 663 422 626T455 549T490 473T522 404Q515 399 503 396T480 394L367 651Q336 618 304 583T240 513T179 445T124 383Q109 401 109 430L343 685Z" />
<glyph unicode="_" glyph-name="underscore" horiz-adv-x="500" d="M406 -92Q404 -122 390 -144Q342 -144 288 -144T179 -144T68 -145T-39 -147Q-41 -113 -26 -92H406Z" />
<glyph unicode="`" glyph-name="grave" horiz-adv-x="266" d="M136 704Q156 712 181 713T230 706Q237 664 247 623T274 536Q267 533 257 533T239 538Q220 576 192 622T136 704Z" />
<glyph unicode="a" glyph-name="a" horiz-adv-x="483" d="M364 147Q358 118 355 101T353 75T358 63T371 60Q382 60 394 66T426 90Q433 83 437 76T444 59Q420 31 390 11T333 -9Q299 -9 284 7T265 48T268 99T283 147H282Q268 119 248 92T205 42T155 5T100 -9Q50
-9 29 41T30 202Q42 260 67 308T127 392T206 447T299 467Q313 467 328 465T355 458Q370 458 386 460T412 467Q416 465 419 461T424 447T423 419T414 371L364 147ZM335 406Q309 416 274 416Q243 416 219 404T177 369T147 316T127 248Q109 163 117 118T156 72Q169
72 190 90T235 142T280 225T318 336L335 406Z" />
<glyph unicode="b" glyph-name="b" horiz-adv-x="448" d="M118 534Q124 569 126 588T123 617T104 629T67 631Q65 654 73 669Q108 674 143 685T208 710Q239 700 229 646L190 427Q183 389 174 356T149 280H151Q163 310 183 342T230 403T285 449T347 467Q397 467
418 417T417 256Q405 198 380 150T320 66T240 11T147 -9Q98 -9 66 3T9 41Q16 51 23 69T37 111T50 162T62 217L118 534ZM113 54Q127 46 141 44T173 42Q204 42 228 54T270 89T300 142T320 210Q338 295 330 340T291 386Q278 386 257 368T212 316T166 233T129 122L113
54Z" />
<glyph unicode="c" glyph-name="c" horiz-adv-x="374" d="M133 -9Q90 -9 67 12T34 66T26 142T36 228Q45 274 65 317T116 393T184 447T269 467Q298 467 315 462T348 446Q325 393 320 335Q312 331 301 329T277 327Q277 375 264 394T221 414Q206 414 193 404T167
375T146 332T132 280Q124 240 121 202T122 133T139 85T178 66Q207 66 234 81T281 118Q294 109 302 90Q284 67 263 49T219 18T174 -2T133 -9Z" />
<glyph unicode="d" glyph-name="d" horiz-adv-x="490" d="M379 177Q372 137 369 114T365 78T369 63T380 60Q391 60 403 66T435 90Q442 83 446 76T453 59Q429 31 398 11T340 -9Q304 -9 289 8T271 50T274 104T288 157H287Q273 128 253 99T209 45T157 6T100 -9Q50
-9 29 41T30 202Q42 260 67 308T127 392T206 447T299 467Q318 467 341 462Q342 478 344 496T350 534Q356 569 358 588T355 617T337 629T299 631Q299 642 299 651T305 669Q317 670 335 674T373 685T411 697T440 710Q470 700 461 646L379 177ZM335 406Q309 416 274
416Q243 416 219 404T177 369T147 316T127 248Q109 163 117 118T156 72Q169 72 190 90T235 142T281 225T318 336L335 406Z" />
<glyph unicode="e" glyph-name="e" horiz-adv-x="360" d="M257 467Q287 467 307 458T337 433T350 397T349 356Q343 325 318 299T260 254T190 224T122 212Q119 186 119 160T126 113T145 79T181 66Q203 66 231 79T281 119Q296 108 302 90Q288 72 269 54T227 22T180
0T132 -9Q90 -9 67 11T33 65T24 139T34 221Q45 279 69 325T123 402T189 450T257 467ZM126 249Q151 250 175 256T218 275T251 304T268 343Q270 355 269 367T263 389T248 406T224 413Q195 413 169 375T130 271L126 249Z" />
<glyph unicode="f" glyph-name="f" horiz-adv-x="292" d="M124 454Q135 521 158 570T213 651T281 698T359 714Q397 714 423 707T463 689Q452 666 446 638T437 582Q420 572 395 574Q393 625 377 646T329 668Q311 668 297 659T271 626T247 558T222 448H321Q321 437
320 427T314 409Q286 409 260 407T213 401Q196 304 185 231T166 118Q152 38 132 -29T83 -145T21 -221T-55 -248Q-102 -248 -144 -212Q-146 -196 -144 -181T-137 -152Q-114 -160 -86 -164T-26 -168Q-9 -168 3 -163T26 -135T46 -67T68 59Q79 133 89 216T116 403Q99
405 81 407T45 409Q45 432 56 448H123L124 454Z" />
<glyph unicode="g" glyph-name="g" horiz-adv-x="448" d="M297 178Q284 147 264 114T217 54T161 9T100 -9Q50 -9 29 41T30 202Q42 260 67 308T127 392T206 447T299 467Q313 467 329 465T356 458Q370 459 384 461T406 467Q415 463 418 452T416 411L341 -12Q318
-140 257 -195T101 -250Q60 -250 25 -242T-29 -219Q-18 -196 -12 -165T-4 -105Q14 -95 40 -97Q42 -155 57 -180T117 -205Q164 -205 197 -164T247 -29L261 53Q265 76 275 110T298 178H297ZM335 406Q309 416 274 416Q243 416 219 404T177 369T147 316T127 248Q109
163 117 118T156 72Q169 72 190 90T235 142T281 225T318 336L335 406Z" />
<glyph unicode="h" glyph-name="h" horiz-adv-x="504" d="M395 153Q387 119 383 100T379 72T381 61T391 59Q402 59 418 68T447 90Q461 76 465 58Q432 24 405 8T350 -9Q320 -9 306 2T289 34T290 85T303 152L330 271Q339 309 340 333T339 372T327 391T307 397Q292
397 268 378T218 323T170 238T138 130L115 0H24L118 534Q124 569 126 588T123 617T105 629T67 631Q67 642 67 651T73 669Q85 670 103 674T141 685T179 697T208 710Q238 700 229 646Q214 563 204 509T185 414T166 338T142 258H143L168 311Q180 335 202 362T251 413T308
452T364 467Q380 467 396 459T424 430T436 372T424 275L395 153Z" />
<glyph unicode="i" glyph-name="i" horiz-adv-x="247" d="M209 697Q234 697 246 681T252 636Q247 610 229 594T186 577Q162 577 151 593T144 636Q150 664 168 680T209 697ZM80 279Q91 317 95 338T96 371T79 385T40 388Q39 410 46 426Q58 427 74 431T106 442T137
454T161 467Q192 454 198 424T188 331L133 138Q126 114 123 99T121 75T126 64T138 61Q148 61 161 68T190 90Q205 80 208 58Q179 26 151 9T94 -9Q44 -9 33 30T39 135L80 279Z" />
<glyph unicode="j" glyph-name="j" horiz-adv-x="233" d="M204 697Q229 697 241 681T247 636Q242 610 224 594T181 577Q157 577 146 593T139 636Q145 664 163 680T204 697ZM97 314Q101 337 101 351T97 374T78 385T42 388Q41 398 42 407T48 426Q60 427 76 431T110
442T143 454T167 467Q180 461 188 454T199 431T200 389T189 319L143 74Q131 12 112 -37T62 -125T-9 -194T-104 -249Q-118 -237 -119 -216Q-47 -165 -8 -100T48 51L97 314Z" />
<glyph unicode="k" glyph-name="k" horiz-adv-x="436" d="M155 309Q184 379 226 423T327 467Q375 467 398 436T413 360Q408 333 391 310T348 268T291 238T226 222Q258 195 300 107Q314 78 323 70T347 62Q357 62 367 68T392 91Q404 78 410 59Q386 30 357 11T306
-9Q286 -9 273 -5T250 10T231 39T212 83Q198 119 185 145T151 202Q149 195 148 189T146 176L115 0H24L118 534Q124 569 126 588T123 617T105 629T67 631Q65 654 73 669Q85 670 103 674T141 685T179 697T208 710Q239 700 229 646Q216 574 207 525T190 440T174 373T154
309H155ZM321 342Q326 368 314 382T282 396Q269 396 254 386T223 356T193 309T166 250Q227 256 270 278T321 342Z" />
<glyph unicode="l" glyph-name="l" horiz-adv-x="254" d="M148 224Q137 171 133 139T129 89T135 67T148 61Q158 61 170 67T199 90Q212 78 217 60Q193 31 163 11T104 -9Q33 -9 36 72Q36 84 37 97T41 130T49 181T64 259T86 374T118 534Q125 568 126 587T123 617T105
629T67 631Q67 642 67 651T73 669Q85 670 103 674T141 685T179 697T208 710Q238 700 229 646Q209 532 189 427T148 224Z" />
<glyph unicode="m" glyph-name="m" horiz-adv-x="778" d="M92 291Q98 326 100 345T97 374T78 386T40 388Q40 392 40 405T46 426Q58 427 76 431T114 442T151 454T180 467Q210 457 201 402Q193 359 185 331T165 278H166L181 311Q192 336 214 363T264 414T322 452T380
467Q393 467 407 462T432 443T448 407T447 352Q443 332 438 315T425 278H426L441 311Q452 335 474 361T525 410T583 447T640 462Q667 462 683 448T705 409T710 349T696 270L666 153Q658 122 654 104T650 76T654 63T667 60Q678 60 691 66T722 90Q736 77 739 58Q716
31 686 11T626 -9Q598 -9 583 -1T564 25T562 75T576 152L602 266Q611 304 613 328T612 367T602 386T583 392Q568 392 544 376T495 326T447 244T411 130L386 0H296L342 225Q354 281 356 315T356 367T343 391T323 397Q308 397 284 379T235 327T188 243T153 130L128
0H37L92 291Z" />
<glyph unicode="n" glyph-name="n" horiz-adv-x="518" d="M409 153Q401 119 397 100T393 72T395 61T405 59Q416 59 432 68T461 90Q475 76 479 58Q446 24 419 8T364 -9Q334 -9 320 2T303 34T304 85T317 152L344 271Q353 309 354 333T353 372T341 391T321 397Q306
397 282 378T232 323T185 238T152 130L127 0H36L91 291Q97 326 99 345T96 374T78 386T40 388Q40 399 40 408T46 426Q58 427 76 431T115 442T153 454T182 467Q212 457 203 402Q195 359 186 331T165 277H166L182 311Q194 335 216 362T265 413T322 452T378 467Q394
467 410 459T438 430T450 372T438 275L409 153Z" />
<glyph unicode="o" glyph-name="o" horiz-adv-x="455" d="M272 467Q315 467 347 451T399 403T424 329T420 234Q410 179 388 135T334 58T263 9T179 -9Q136 -9 105 7T54 52T29 123T33 215Q44 272 66 318T120 398T190 449T272 467ZM259 418Q236 418 216 405T177 366T146
306T124 228Q107 142 124 90T186 38Q209 38 230 51T270 89T302 148T324 224Q340 311 323 364T259 418Z" />
<glyph unicode="p" glyph-name="p" horiz-adv-x="466" d="M172 286Q184 316 204 348T249 406T304 450T366 468Q416 468 437 418T436 257Q424 199 399 151T339 67T260 12T167 -8Q156 -8 144 -6T121 -2Q123 -22 121 -47T111 -114L88 -245H-3L91 289Q97 324 99 343T96
372T78 384T40 386Q40 397 40 406T46 424Q58 425 76 429T114 440T152 452T181 465Q211 455 202 401Q197 371 190 343T170 286H172ZM131 53Q157 43 192 43Q223 43 247 55T289 90T319 143T339 211Q357 296 349 341T310 387Q297 387 276 369T231 317T185 234T148 123L131
53Z" />
<glyph unicode="q" glyph-name="q" horiz-adv-x="462" d="M296 178Q284 147 264 114T217 54T161 9T100 -9Q50 -9 29 41T30 202Q42 260 67 308T127 392T206 447T299 467Q349 467 381 455T438 417Q431 406 424 388T410 347T397 296T385 241L300 -242H209L261 53Q265
76 275 110T298 178H296ZM335 406Q309 416 274 416Q243 416 219 404T177 369T147 316T127 248Q109 163 117 118T156 72Q169 72 190 90T235 142T281 225T318 336L335 406Z" />
<glyph unicode="r" glyph-name="r" horiz-adv-x="366" d="M88 291Q95 326 97 345T94 374T76 386T39 388Q39 399 40 408T46 426Q58 427 76 431T114 442T152 454T181 467Q211 457 201 403Q191 350 157 271H159L176 308Q191 341 210 369T250 420T292 454T334 467Q353
467 366 463T390 449Q379 426 372 394T363 333Q346 323 321 325Q320 347 318 360T313 381T306 390T296 392Q282 392 264 371T224 312Q192 254 173 203T141 89L124 0H32L88 291Z" />
<glyph unicode="s" glyph-name="s" horiz-adv-x="362" d="M162 34Q183 34 200 44T222 76Q226 98 215 117T185 156T144 195T103 240T75 294T72 362Q81 413 119 440T220 467Q252 467 287 457T345 425Q334 402 330 379T323 327Q306 317 281 319Q279 367 257 395T195
423Q171 423 157 412T140 383Q135 360 147 341T179 303T222 264T264 220T293 167T296 99Q286 47 247 19T142 -9Q100 -9 64 6T5 48Q16 71 20 96T27 150Q44 160 69 158Q68 133 75 111T94 71T124 44T162 34Z" />
<glyph unicode="t" glyph-name="t" horiz-adv-x="316" d="M161 203Q152 162 150 134T150 87T163 61T184 53Q201 53 221 65T258 98Q266 93 271 84T279 66Q269 53 255 40T223 16T186 -2T146 -9Q83 -9 64 39T69 196L116 403Q99 405 80 407T42 409Q42 432 53 448H127L129
458Q140 504 146 539T155 596Q175 599 197 605T234 620Q240 617 243 611T247 593T243 557T230 497L219 448H312Q312 437 311 427T305 409Q278 409 253 407T208 402L161 203Z" />
<glyph unicode="u" glyph-name="u" horiz-adv-x="508" d="M308 151Q296 126 277 98T232 46T179 7T122 -9Q87 -9 71 12T52 68T54 143T70 225Q85 285 91 318T95 366T79 385T41 388Q39 397 40 407T46 426Q57 427 75 431T114 442T151 454T179 467Q190 460 195 452T200
420T188 349T157 218Q119 65 174 65Q188 65 211 81T259 132T306 217T342 337L365 458H456L407 210Q396 157 391 127T385 82T388 64T401 60Q412 60 422 67T450 91Q457 85 461 77T469 59Q445 31 415 11T357 -9Q311 -9 298 22T294 103Q299 129 310 151H308Z" />
<glyph unicode="v" glyph-name="v" horiz-adv-x="476" d="M391 468Q419 457 434 433T449 365Q449 336 438 301T398 220T322 119T202 -9Q174 -11 154 0Q148 94 135 179T106 326Q101 344 97 356T85 376T65 386T34 388Q34 392 35 405T39 426Q64 429 93 442T139 467Q153
462 161 456T175 437T185 405T195 356Q202 320 208 282T219 208T227 137T233 76Q297 151 328 211T359 309Q359 348 345 365T298 387Q290 404 292 424Q305 428 320 433T348 445T373 457T391 468Z" />
<glyph unicode="w" glyph-name="w" horiz-adv-x="704" d="M616 467Q644 456 660 432T676 363Q676 334 667 300T632 222T561 121T445 -9Q417 -11 397 0Q392 65 385 121T369 224Q358 194 345 168T312 114T265 57T202 -9Q174 -11 154 0Q148 94 135 179T106 326Q101
344 97 356T85 376T65 386T34 388Q34 392 35 405T39 426Q64 429 93 442T139 467Q153 462 161 456T175 437T185 405T195 356Q202 321 208 284T219 210T227 140T233 79Q270 122 294 161T328 243T337 331T319 435Q336 440 351 448T374 467Q386 464 393 459T406 443T417
411T429 357Q436 322 443 285T457 211T467 141T475 80Q535 155 561 212T587 307Q587 346 572 364T523 387Q515 404 517 424Q530 428 545 433T573 444T598 456T616 467Z" />
<glyph unicode="x" glyph-name="x" horiz-adv-x="464" d="M354 392Q343 392 330 380T303 346T276 299T251 244Q265 199 277 163T302 99Q313 74 322 67T342 60Q353 60 365 67T397 91Q409 78 415 59Q391 31 361 11T301 -9Q269 -9 253 2T226 40Q215 66 205 94T185
151Q171 123 154 95T116 43T73 6T27 -9Q9 -9 -1 -6T-22 5Q-14 28 -9 59T-4 120Q4 125 16 127T40 129Q42 94 47 85T63 76Q73 76 86 86T113 115T140 157T166 208Q156 240 148 271T133 330Q125 365 107 377T51 388Q48 409 56 426Q68 427 84 431T116 442T145 454T167
467Q182 464 189 454T204 414Q211 386 218 359T233 305Q247 333 264 362T302 414T345 452T392 467Q411 467 424 463T448 449Q437 426 430 394T421 333Q404 323 379 325Q378 347 376 360T371 381T364 390T354 392Z" />
<glyph unicode="y" glyph-name="y" horiz-adv-x="447" d="M118 467Q130 463 138 458T151 442T161 416T171 372Q188 284 197 208T210 50Q276 150 304 220T333 333Q333 354 322 368T277 387Q269 404 271 424Q284 428 299 433T327 445T352 457T370 468Q398 457 411
436T424 389Q424 326 378 237T240 17Q180 -70 139 -122T68 -202T15 -239T-35 -248Q-82 -248 -124 -212Q-126 -196 -124 -181T-117 -152Q-94 -160 -67 -164T-16 -168Q-1 -168 14 -164T47 -147T86 -113T135 -54Q129 63 116 163T85 326Q80 344 76 356T64 376T44 386T13
388Q11 411 18 426Q43 429 72 442T118 467Z" />
<glyph unicode="z" glyph-name="z" horiz-adv-x="398" d="M309 135Q320 136 332 133T352 123Q341 98 334 68T323 10Q314 -5 293 -5Q279 -5 265 -4T234 -3T195 -1T141 0Q87 0 50 -1T-3 -4Q-8 5 -10 15T-12 38Q92 129 170 214T290 370Q276 374 259 376T216 378Q190
378 172 375T141 366T117 349T96 322Q83 323 75 327T59 339Q74 366 85 396T101 454Q127 461 156 464T229 467Q278 467 307 464T359 457Q372 444 375 422Q352 381 322 338T257 250T183 164T103 82Q117 84 133 85T175 86Q203 86 222 84T252 81Q267 81 279 90T309
135Z" />
<glyph unicode="{" glyph-name="braceleft" horiz-adv-x="317" d="M364 742Q367 735 367 726T366 708Q320 700 295 679T258 629T242 564T238 493T232 420T213 352T170 297T91 259Q137 245 158 220T184 161T184 88T168 10T149 -68T140 -140T154 -199T204 -238Q204
-247 202 -256T194 -271Q140 -252 113 -223T77 -158T71 -83T83 -3T98 75T105 146T88 204T35 244Q35 264 46 276Q88 291 109 316T140 372T152 439T156 511T167 583T196 650T258 704T364 742Z" />
<glyph unicode="|" glyph-name="bar" horiz-adv-x="183" d="M159 712Q174 712 186 708T207 693Q157 459 112 226T25 -246Q11 -245 -1 -241T-22 -227L159 712Z" />
<glyph unicode="}" glyph-name="braceright" horiz-adv-x="322" d="M126 741Q184 721 214 694T255 636T264 570T253 500T237 432T230 369T245 317T297 278Q300 265 295 246Q252 234 229 208T193 148T175 73T165 -10T150 -93T119 -169T60 -231T-37 -271Q-40 -262
-41 -254T-40 -238Q2 -230 25 -208T59 -153T74 -81T80 0T89 83T111 158T159 219T243 259Q195 272 174 295T148 347T150 409T168 478T188 547T195 611T175 667T114 708Q116 718 118 727T126 741Z" />
<glyph unicode="~" glyph-name="asciitilde" horiz-adv-x="547" d="M183 335Q211 335 238 326T291 307T345 287T399 278Q424 278 449 288T502 323Q522 323 532 307Q492 255 456 236T388 216Q361 216 336 225T285 247T233 268T179 278Q150 278 120 264T54 213Q36
221 33 239Q74 294 111 314T183 335Z" />
<glyph unicode="&#xa1;" glyph-name="exclamdown" horiz-adv-x="274" d="M112 418Q117 441 130 454T166 467Q193 467 207 450T215 403Q211 383 196 370T159 356Q136 356 122 373T112 418ZM-2 -203Q9 -164 23 -112T51 -3T80 116T107 234Q133 237 151 228Q142 157
136 97T125 -17T117 -121T111 -222Q88 -227 58 -236T11 -255Q-3 -250 -6 -239T-2 -203Z" />
<glyph unicode="&#xa2;" glyph-name="cent" horiz-adv-x="374" d="M269 467Q298 467 315 462T348 446Q325 393 320 335Q312 331 301 329T277 327Q277 390 252 406Q232 317 217 235T185 66Q212 68 238 83T281 118Q294 109 302 90Q276 56 241 32T173 -2Q168 -34
163 -67T151 -136Q137 -135 125 -131T104 -117L125 -9Q85 -7 63 15T33 70T26 145T36 228Q43 267 59 304T98 372T151 425T216 459L246 615Q261 615 273 611T294 596Q286 562 279 530T265 467H269ZM206 411Q181 401 161 365T132 280Q126 249 123 219T119 163T125
115T142 81L206 411Z" />
<glyph unicode="&#xa3;" glyph-name="sterling" horiz-adv-x="470" d="M115 335Q110 352 105 370T97 408T94 451T98 504Q104 538 121 571T167 629T232 669T316 685Q362 685 396 675T460 642Q453 612 449 581T443 511Q428 508 415 509T390 516Q395 584 374 611T300
638Q258 638 227 610T187 535Q181 501 184 476T195 428T209 384T217 335H345Q345 303 331 283H211Q201 238 176 195T105 103Q149 125 195 125Q223 125 244 117T283 100T315 82T342 74Q370 74 387 101Q398 99 407 91T419 74Q402 36 372 14T307 -9Q281 -9 264 0T230
20T190 41T132 50Q100 50 65 37T-8 -9Q-19 -2 -26 7T-39 29Q-7 54 19 78T66 129T100 184T120 248Q123 266 123 282Q94 282 68 282T18 280Q16 314 31 335H115Z" />
<glyph unicode="&#xa4;" glyph-name="currency" horiz-adv-x="540" d="M398 361Q412 338 416 310T415 247Q409 213 395 185T359 134L415 73Q408 66 395 62T370 57L326 107Q280 75 218 75Q150 75 107 110L52 58Q41 59 30 64T10 79L80 140Q63 166 57 200T59 277Q68
330 104 369L56 419Q64 426 77 430T103 436L137 397Q186 431 255 431Q291 431 320 421T371 393L423 438Q435 435 446 429T462 415L398 361ZM359 239Q371 306 340 348T245 390Q195 390 160 359T115 276Q102 205 132 161T228 116Q252 116 273 125T312 151T342 190T359
239Z" />
<glyph unicode="&#xa5;" glyph-name="yen" horiz-adv-x="583" d="M248 369Q228 420 209 464T176 541Q163 569 154 586T138 614T123 628T104 637Q102 648 102 657T103 679Q131 677 159 677T214 676Q244 676 273 676T340 679Q340 667 338 657T331 635Q282 628 269
612T273 556Q293 511 314 457T354 347Q374 374 393 400T429 449T459 492T482 524Q519 579 517 603T469 636Q465 655 468 679Q493 677 514 677T564 676Q588 676 608 676T653 679Q653 657 644 636Q635 633 628 628T608 610T578 573T530 508Q507 476 482 442T427 369H546Q548
340 534 317H388L372 296L363 248H532Q530 218 516 196H354L341 122Q337 101 337 87T344 64T366 50T408 40Q413 19 410 -3Q378 -1 345 -1T282 0Q249 0 214 0T151 -3Q151 22 158 41Q183 45 198 50T223 65T238 91T249 132L260 195Q216 195 174 195T90 193Q88 208
90 222T100 248H269L277 293L268 317Q242 317 222 317T183 317T146 316T105 314Q103 348 118 369H248Z" />
<glyph unicode="&#xa6;" glyph-name="brokenbar" horiz-adv-x="183" d="M159 712Q174 712 186 708T207 693Q188 602 171 512T137 328Q123 329 111 333T90 347L159 712ZM55 171Q70 171 82 167T103 152Q82 52 63 -46T25 -246Q11 -245 -1 -241T-22 -227L55 171Z" />
<glyph unicode="&#xa7;" glyph-name="section" horiz-adv-x="512" d="M233 606Q225 568 243 540T291 486T358 435T424 378T468 305T471 205Q460 150 416 109T298 45Q316 29 332 11T358 -28T371 -74T369 -129Q359 -180 312 -213T186 -247Q100 -247 44 -200Q49 -166
52 -136T55 -71Q80 -61 110 -66Q111 -108 117 -134T134 -175T162 -195T201 -201Q233 -201 253 -184T280 -138Q288 -100 270 -72T222 -18T155 33T89 90T45 163T42 263Q54 318 98 359T215 423Q197 439 182 457T156 496T142 542T144 597Q154 648 201 681T327 715Q413
715 469 668Q464 634 461 604T458 539Q433 529 403 534Q402 576 396 602T379 643T351 663T312 669Q280 669 260 652T233 606ZM373 195Q380 231 372 258T347 308T306 350T257 390Q214 374 181 343T140 273Q133 237 141 210T166 160T208 117T257 78Q300 94 332 125T373
195Z" />
<glyph unicode="&#xa8;" glyph-name="dieresis" horiz-adv-x="463" d="M174 596Q182 640 229 640Q255 640 266 624T273 581Q260 532 217 532Q192 532 180 549T174 596ZM429 584Q424 559 410 546T372 533Q347 533 335 549T328 593Q336 640 386 640Q410 640 422
625T429 584Z" />
<glyph unicode="&#xa9;" glyph-name="copyright" horiz-adv-x="716" d="M395 571Q476 571 536 545T634 469T684 352T681 200Q668 130 636 73T557 -25T451 -88T324 -111Q244 -111 183 -85T85 -9T34 108T37 260Q50 330 82 387T162 485T268 548T395 571ZM332 -67Q390
-67 440 -48T531 6T598 91T637 200Q651 274 642 334T601 438T516 504T387 528Q329 528 279 509T188 455T120 370T81 260Q67 186 76 126T116 23T202 -43T332 -67ZM298 -9Q255 -9 232 12T199 66T191 142T201 228Q210 274 230 317T281 393T349 447T434 467Q463 467
480 462T513 446Q490 393 485 335Q477 331 466 329T442 327Q442 375 429 394T386 414Q371 414 358 404T332 375T311 332T297 280Q289 240 286 202T287 133T304 85T343 66Q372 66 399 81T446 118Q459 109 467 90Q449 67 428 49T384 18T339 -2T298 -9Z" />
<glyph unicode="&#xaa;" glyph-name="ordfeminine" horiz-adv-x="453" d="M368 476Q361 440 362 432T373 423Q379 423 388 427T409 443Q416 438 421 428T428 410Q409 389 386 375T345 361Q319 361 307 373T293 403T295 441T307 476H305Q294 456 280 436T248 399T210
372T168 361Q131 361 116 398T117 518Q126 561 144 598T189 661T249 702T318 717Q341 717 360 710Q370 709 382 711T403 717Q412 712 414 700T407 647L368 476ZM342 669Q322 675 299 675Q256 675 231 642T194 554Q181 491 185 462T209 433Q218 433 233 444T264
478T298 536T328 619L342 669Z" />
<glyph unicode="&#xab;" glyph-name="guillemotleft" horiz-adv-x="418" d="M203 418Q214 417 223 412T237 399Q224 386 208 368T174 330T142 293T118 261Q123 247 131 227T150 187T169 148T186 117Q184 106 178 97T163 83Q130 129 97 169T34 240Q34 264 47 279Q91
316 128 348T203 418ZM363 412Q374 411 383 406T397 393Q384 379 369 362T340 326T312 291T288 261Q293 247 300 229T315 191T331 154T346 122Q344 111 338 102T323 88Q259 176 204 240Q204 264 217 279Q239 297 257 313T293 345T328 377T363 412Z" />
<glyph unicode="&#xac;" glyph-name="logicalnot" horiz-adv-x="538" d="M453 114Q442 108 427 107T397 108L429 299Q338 299 238 299T47 296Q46 327 60 347H492L453 114Z" />
<glyph unicode="&#xad;" glyph-name="softhyphen" horiz-adv-x="343" d="M323 299Q322 277 319 263T310 234Q260 234 190 234T33 231Q35 254 38 269T50 299H323Z" />
<glyph unicode="&#xae;" glyph-name="registered" horiz-adv-x="496" d="M323 676Q367 676 400 660T455 616T484 551T483 472Q467 390 412 346T276 301Q233 301 200 317T145 362T115 427T115 506Q132 585 187 630T323 676ZM448 470Q455 507 450 539T427 594T383
631T320 645Q255 645 209 608T151 508Q144 473 150 442T173 387T217 349T280 335Q344 335 390 372T448 470ZM250 548Q252 562 248 566T231 573Q229 585 232 594Q243 593 253 593T275 593Q288 593 302 593T329 594Q362 594 377 579T388 537Q384 517 367 502T323
481Q329 472 334 462T348 432Q356 412 367 412Q374 412 380 418Q388 412 388 401Q373 382 349 382Q325 382 313 421Q308 439 302 452T289 476L274 477L267 439Q263 418 265 413T279 405Q284 396 282 384Q270 385 261 385T241 385Q230 385 220 385T200 384Q200 389
201 395T204 405Q218 407 223 413T232 443L250 548ZM289 497Q315 497 330 506T350 535Q353 552 345 563T316 574Q302 574 290 571L277 497H289Z" />
<glyph unicode="&#xaf;" glyph-name="macron" horiz-adv-x="540" d="M444 631Q444 610 435 588Q333 588 246 588T87 585Q87 591 89 606T96 631H444Z" />
<glyph unicode="0;" glyph-name="degree" horiz-adv-x="385" d="M273 700Q337 700 369 665T391 569Q382 517 344 486T250 454Q185 454 153 492T132 595Q140 643 178 671T273 700ZM267 662Q243 662 225 644T202 597Q194 550 209 522T256 494Q279 494 297 514T321
568Q329 610 314 636T267 662Z" />
<glyph unicode="1;" glyph-name="plusminus" horiz-adv-x="454" d="M436 366Q438 337 425 317H262Q255 279 249 242T237 169Q224 165 210 166T186 176L213 316Q171 316 130 316T51 314Q49 346 64 366H222L251 516Q278 527 303 516Q295 485 287 447T271 366H436ZM404
131Q402 101 388 79Q292 79 204 79T13 76Q11 110 26 131H404Z" />
<glyph unicode="2;" glyph-name="twosuperior" horiz-adv-x="317" d="M347 615Q342 589 323 564T262 507Q254 501 242 492T215 473T186 450T158 428Q168 429 177 429T197 429Q217 429 227 428T251 427Q268 427 283 441T306 484Q315 486 324 485T342 480Q339
469 337 455T333 426T331 399T330 377Q320 358 287 358Q266 358 241 359T179 360Q147 360 113 360T50 358Q43 371 47 390Q63 403 83 419T123 451T160 480T189 501Q221 524 239 549T264 608Q270 640 260 657T225 674Q201 674 186 651T154 575Q142 574 129 575T107
582Q115 603 119 631T125 683Q185 717 246 717Q302 717 330 692T347 615Z" />
<glyph unicode="3;" glyph-name="threesuperior" horiz-adv-x="312" d="M333 617Q328 590 308 569T247 527Q292 517 315 482T327 388Q320 357 301 331T254 285T190 256T113 245Q89 245 66 251T31 267Q31 276 37 285T50 298Q58 293 75 289T116 285Q166 285
200 311T244 383Q254 426 231 455T146 484Q141 488 139 495T139 511Q194 529 219 554T252 615Q257 640 248 657T213 675Q183 675 166 653T132 574Q120 572 107 574T86 581Q93 603 98 631T104 682Q127 699 158 708T222 717Q280 717 311 691T333 617Z" />
<glyph unicode="4;" glyph-name="acute" horiz-adv-x="270" d="M226 716Q256 724 283 722T329 707Q291 671 249 625T169 527Q147 529 133 541Q166 593 190 638T226 716Z" />
<glyph unicode="5;" glyph-name="mu" horiz-adv-x="493" d="M188 458L149 258Q130 164 144 117T187 70Q202 70 221 85T258 131T293 205T321 307L350 458H441L392 210Q381 157 376 127T370 82T373 64T386 60Q397 60 407 67T435 91Q442 85 446 77T454 59Q430
31 400 11T342 -9Q301 -9 290 17T286 83Q290 103 293 113T299 131H298Q287 100 271 75T236 31T198 2T159 -9Q127 -9 112 7T90 50H89Q90 24 87 -5T79 -60Q73 -89 71 -121T72 -177Q50 -186 22 -204T-27 -242Q-44 -231 -38 -200Q-36 -189 -33 -179T-25 -154T-14 -115T-1
-53L97 458H188Z" />
<glyph unicode="6;" glyph-name="paragraph" horiz-adv-x="555" d="M313 318Q303 316 293 316T275 316Q173 316 126 365T95 511Q101 547 121 577T175 630T260 665T379 678Q425 678 459 677T528 676Q546 676 562 676T600 679Q598 655 591 636Q568 633 555 629T534
615T522 592T514 555Q499 477 487 410T463 280T441 157T420 34T398 -98T375 -246Q347 -251 325 -244L478 633Q464 634 450 634T420 635Q398 521 378 413T339 197T302 -21T265 -248Q251 -250 239 -249T216 -241L313 318ZM369 636Q322 636 290 630T237 609T205 572T187
516Q179 471 186 441T211 391T257 364T320 355L369 636Z" />
<glyph unicode="7;" glyph-name="periodcentered" horiz-adv-x="167" d="M144 268Q139 245 126 232T90 219Q63 219 49 236T41 283Q45 303 60 316T97 330Q120 330 134 313T144 268Z" />
<glyph unicode="8;" glyph-name="cedilla" horiz-adv-x="540" d="M271 -55Q308 -63 324 -87T332 -158Q323 -201 283 -222T185 -242Q181 -229 184 -210Q221 -210 244 -198T273 -160Q278 -131 263 -116T219 -101Q212 -95 209 -86T209 -63L274 16H329L271 -55Z" />
<glyph unicode="9;" glyph-name="onesuperior" horiz-adv-x="256" d="M155 581Q160 607 161 623T160 650T145 666T115 673Q113 682 113 690T114 711Q134 709 157 709T212 708Q244 708 268 708T314 711Q314 692 305 673Q287 670 276 664T258 648T246 621T237
581L219 487Q214 461 213 445T215 420T229 406T258 398Q263 379 260 357Q237 359 213 359T160 360Q131 360 105 360T60 357Q60 383 68 398Q86 400 97 404T116 419T127 445T137 487L155 581Z" />
<glyph unicode="a;" glyph-name="ordmasculine" horiz-adv-x="413" d="M302 717Q368 717 397 670T413 541Q405 499 388 465T347 407T292 371T228 358Q162 358 134 403T118 526Q126 570 143 605T185 665T239 703T302 717ZM294 675Q264 675 241 642T205 540Q193
473 202 437T235 400Q264 400 288 433T325 536Q331 566 331 591T328 635T316 664T294 675Z" />
<glyph unicode="b;" glyph-name="guillemotright" horiz-adv-x="427" d="M210 128Q237 154 269 187T325 248Q319 263 311 284T292 327T271 370T251 407Q266 419 288 416Q314 380 340 347T397 281Q406 262 399 242Q357 208 312 168T225 90Q210 105 210 128ZM44
133Q71 160 98 190T148 248Q137 280 120 322T84 402Q99 414 121 411Q147 373 169 344T220 281Q229 262 222 242Q180 207 141 172T59 95Q44 110 44 133Z" />
<glyph unicode="c;" glyph-name="onequarter" horiz-adv-x="752" d="M165 565Q170 589 170 603T166 626T147 637T110 640Q105 663 117 680Q157 685 187 693T250 717Q264 712 271 698T274 658L223 397Q219 376 218 363T221 341T234 328T260 322Q263 311 263
301T262 279Q227 281 207 281T160 282Q134 282 113 282T60 279Q60 289 62 301T67 321Q85 323 95 327T113 339T124 361T132 395L165 565ZM684 716Q713 701 718 675Q643 584 576 502T443 337T311 171T171 -9Q159 -3 151 7T140 30L684 716ZM703 166Q717 166 727 156Q724
150 721 140T715 119T710 98T707 80H655L640 0H547L562 79Q503 78 463 77T397 75Q388 82 382 100T377 131Q456 208 529 287T677 449Q692 450 703 448T722 441L671 166H703ZM587 216Q592 245 598 273T614 327H613Q605 315 588 294T535 234Q516 213 498 196T465 166H578L587
216Z" />
<glyph unicode="d;" glyph-name="onehalf" horiz-adv-x="852" d="M165 565Q170 589 170 603T166 626T147 637T110 640Q105 663 117 680Q157 685 187 693T250 717Q264 712 271 698T274 658L223 397Q219 376 218 363T221 341T234 328T260 322Q263 311 263 301T262
279Q227 281 207 281T160 282Q134 282 113 282T60 279Q60 289 62 301T67 321Q85 323 95 327T113 339T124 361T132 395L165 565ZM684 716Q713 701 718 675Q643 584 576 502T443 337T311 171T171 -9Q159 -3 151 7T140 30L684 716ZM820 333Q812 291 784 259T699 187Q688
179 673 168T640 143T604 114T570 86Q584 88 596 88T624 88Q648 88 663 86T693 84Q708 84 722 96T745 143Q756 144 770 142T791 136Q785 108 783 76T781 21Q776 10 766 4T738 -3Q714 -3 685 -2T608 0Q588 0 573 0T542 0T509 -1T470 -3Q464 6 462 20T461 45Q482
65 505 85T550 124T593 159T628 187Q671 220 691 250T720 317Q728 358 719 382T679 406Q642 406 623 378T588 283Q576 282 561 284T538 291Q556 346 559 406Q597 430 629 439T699 449Q765 449 798 419T820 333Z" />
<glyph unicode="e;" glyph-name="threequarters" horiz-adv-x="765" d="M696 716Q725 701 730 675Q655 584 588 502T455 337T323 171T183 -9Q171 -3 163 7T152 30L696 716ZM715 166Q729 166 739 156Q736 150 733 140T727 119T722 98T719 80H667L652 0H559L574
79Q515 78 475 77T409 75Q400 82 394 100T389 131Q468 208 541 287T689 449Q704 450 715 448T734 441L683 166H715ZM599 216Q604 245 610 273T626 327H625Q617 315 600 294T547 234Q528 213 510 196T477 166H590L599 216ZM343 610Q337 581 312 555T252 516Q295
507 320 478T334 394Q327 364 309 341T265 303T205 281T136 273Q90 273 67 281T29 300Q29 311 35 323T49 341Q61 333 79 327T127 321Q167 321 195 338T231 392Q239 431 219 453T144 475Q139 486 140 496T145 517Q191 524 212 546T242 605Q248 636 239 654T204 673Q180
673 163 650T130 566Q118 564 103 566T79 573Q82 583 85 597T92 627T97 656T99 682Q122 697 155 707T218 717Q286 717 320 692T343 610Z" />
<glyph unicode="f;" glyph-name="questiondown" horiz-adv-x="449" d="M219 417Q224 440 237 453T273 466Q300 466 314 449T322 402Q318 382 303 369T266 355Q243 355 229 372T219 417ZM288 -213Q271 -228 232 -242T146 -256Q71 -256 34 -217T9 -111Q15 -79
31 -54T67 -8T110 34T153 77T188 127T211 189Q214 201 215 222T215 257Q224 262 231 263T248 265Q261 254 268 220T267 143Q257 93 233 59T182 -2T132 -56T103 -118Q95 -159 108 -187T161 -215Q195 -215 220 -186T266 -86Q282 -86 291 -88T310 -96Q305 -114 301
-128T295 -156T291 -182T288 -213Z" />
<glyph unicode="0;" glyph-name="Agrave" horiz-adv-x="687" d="M132 143Q115 114 108 96T102 66T116 49T147 40Q151 19 150 -3Q126 -1 104 -1T58 0Q32 0 14 0T-27 -3Q-27 8 -26 19T-19 40Q-5 44 6 51T28 70T52 102T82 151Q159 282 233 412T381 676Q390 680
401 681T420 682Q459 545 495 408T564 132Q571 104 577 88T589 62T604 48T623 40Q626 29 626 19T626 -3Q601 -1 570 -1T515 0Q489 0 460 0T401 -3Q401 8 402 19T409 40Q431 43 444 47T464 61T470 84T464 122L441 219Q378 219 306 218T174 215L132 143ZM429 265Q418
311 406 356T381 447Q373 476 368 498T357 552Q342 521 329 497T299 440Q276 396 252 353T203 265H429ZM290 922Q310 930 335 931T384 924Q391 882 401 841T428 754Q421 751 411 751T393 756Q374 794 346 840T290 922Z" />
<glyph unicode="1;" glyph-name="Aacute" horiz-adv-x="687" d="M132 143Q115 114 108 96T102 66T116 49T147 40Q151 19 150 -3Q126 -1 104 -1T58 0Q32 0 14 0T-27 -3Q-27 8 -26 19T-19 40Q-5 44 6 51T28 70T52 102T82 151Q159 282 233 412T381 676Q390 680
401 681T420 682Q459 545 495 408T564 132Q571 104 577 88T589 62T604 48T623 40Q626 29 626 19T626 -3Q601 -1 570 -1T515 0Q489 0 460 0T401 -3Q401 8 402 19T409 40Q431 43 444 47T464 61T470 84T464 122L441 219Q378 219 306 218T174 215L132 143ZM429 265Q418
311 406 356T381 447Q373 476 368 498T357 552Q342 521 329 497T299 440Q276 396 252 353T203 265H429ZM466 934Q496 942 523 940T569 925Q531 889 489 843T409 745Q387 747 373 759Q406 811 430 856T466 934Z" />
<glyph unicode="2;" glyph-name="Acircumflex" horiz-adv-x="687" d="M132 143Q115 114 108 96T102 66T116 49T147 40Q151 19 150 -3Q126 -1 104 -1T58 0Q32 0 14 0T-27 -3Q-27 8 -26 19T-19 40Q-5 44 6 51T28 70T52 102T82 151Q159 282 233 412T381 676Q390
680 401 681T420 682Q459 545 495 408T564 132Q571 104 577 88T589 62T604 48T623 40Q626 29 626 19T626 -3Q601 -1 570 -1T515 0Q489 0 460 0T401 -3Q401 8 402 19T409 40Q431 43 444 47T464 61T470 84T464 122L441 219Q378 219 306 218T174 215L132 143ZM429
265Q418 311 406 356T381 447Q373 476 368 498T357 552Q342 521 329 497T299 440Q276 396 252 353T203 265H429ZM436 923Q455 926 474 916Q497 880 522 846T574 779Q571 769 563 761T544 750Q516 773 487 793T426 831Q390 813 356 793T289 748Q283 757 281 769T280
793Q322 823 361 855T436 923Z" />
<glyph unicode="3;" glyph-name="Atilde" horiz-adv-x="687" d="M132 143Q115 114 108 96T102 66T116 49T147 40Q151 19 150 -3Q126 -1 104 -1T58 0Q32 0 14 0T-27 -3Q-27 8 -26 19T-19 40Q-5 44 6 51T28 70T52 102T82 151Q159 282 233 412T381 676Q390 680
401 681T420 682Q459 545 495 408T564 132Q571 104 577 88T589 62T604 48T623 40Q626 29 626 19T626 -3Q601 -1 570 -1T515 0Q489 0 460 0T401 -3Q401 8 402 19T409 40Q431 43 444 47T464 61T470 84T464 122L441 219Q378 219 306 218T174 215L132 143ZM429 265Q418
311 406 356T381 447Q373 476 368 498T357 552Q342 521 329 497T299 440Q276 396 252 353T203 265H429ZM369 845Q387 845 403 839T434 824T462 810T490 803Q510 803 528 812T563 839Q575 834 581 819Q564 793 549 776T521 749T496 736T473 732Q456 732 440 738T409
753T379 768T347 775Q324 775 304 767T257 737Q245 745 247 761Q285 810 315 827T369 845Z" />
<glyph unicode="4;" glyph-name="Adieresis" horiz-adv-x="687" d="M132 143Q115 114 108 96T102 66T116 49T147 40Q151 19 150 -3Q126 -1 104 -1T58 0Q32 0 14 0T-27 -3Q-27 8 -26 19T-19 40Q-5 44 6 51T28 70T52 102T82 151Q159 282 233 412T381 676Q390
680 401 681T420 682Q459 545 495 408T564 132Q571 104 577 88T589 62T604 48T623 40Q626 29 626 19T626 -3Q601 -1 570 -1T515 0Q489 0 460 0T401 -3Q401 8 402 19T409 40Q431 43 444 47T464 61T470 84T464 122L441 219Q378 219 306 218T174 215L132 143ZM429
265Q418 311 406 356T381 447Q373 476 368 498T357 552Q342 521 329 497T299 440Q276 396 252 353T203 265H429ZM300 814Q308 858 355 858Q381 858 392 842T399 799Q386 750 343 750Q318 750 306 767T300 814ZM555 802Q550 777 536 764T498 751Q473 751 461 767T454
811Q462 858 512 858Q536 858 548 843T555 802Z" />
<glyph unicode="5;" glyph-name="Aring" horiz-adv-x="687" d="M132 143Q115 114 108 96T102 66T116 49T147 40Q151 19 150 -3Q126 -1 104 -1T58 0Q32 0 14 0T-27 -3Q-27 8 -26 19T-19 40Q-5 44 6 51T28 70T52 102T82 151Q159 282 233 412T381 676Q390 680
401 681T420 682Q459 545 495 408T564 132Q571 104 577 88T589 62T604 48T623 40Q626 29 626 19T626 -3Q601 -1 570 -1T515 0Q489 0 460 0T401 -3Q401 8 402 19T409 40Q431 43 444 47T464 61T470 84T464 122L441 219Q378 219 306 218T174 215L132 143ZM429 265Q418
311 406 356T381 447Q373 476 368 498T357 552Q342 521 329 497T299 440Q276 396 252 353T203 265H429ZM332 843Q338 881 367 903T444 926Q491 926 515 898T531 823Q526 788 497 766T420 744Q372 744 348 771T332 843ZM385 838Q380 812 392 797T427 781Q446 781
459 792T475 824Q481 855 470 873T435 892Q417 892 404 877T385 838Z" />
<glyph unicode="6;" glyph-name="AE" horiz-adv-x="846" d="M535 341H577Q608 341 630 344T667 357T690 383T703 424Q716 426 726 426T751 425Q745 400 740 377T730 314Q725 278 723 251T718 199Q704 201 693 203T672 212Q676 262 655 280T573 298H527L501
143Q496 111 496 92T505 62T531 48T578 45Q624 45 654 53T704 78T740 118T770 172Q784 170 795 165T815 150Q798 118 784 80T761 -3Q716 -1 670 -1T568 0Q495 0 436 0T316 -3Q316 20 323 40Q346 43 360 48T383 65T397 95T407 143L434 298Q392 298 351 298T271 295L145
122Q118 85 118 67T147 40Q151 19 150 -3Q126 -1 104 -1T58 0Q32 0 14 0T-27 -3Q-27 8 -26 19T-19 40Q-5 44 7 49T31 65T59 93T96 137Q175 240 250 342T395 538Q459 627 363 636Q359 655 362 679Q393 678 419 678T472 677T528 676T592 676Q650 676 713 676T855
679Q850 641 848 596T848 516Q829 508 798 509Q797 541 793 564T774 602T732 624T656 631H584L535 341ZM493 614Q463 567 419 503T304 341H442L472 514Q477 543 482 568T494 614H493Z" />
<glyph unicode="7;" glyph-name="Ccedilla" horiz-adv-x="615" d="M286 -7Q220 1 172 30T95 103T54 205T51 328Q63 422 102 489T195 600T315 664T444 685Q507 685 556 671T656 626Q643 592 636 555T623 475Q598 465 569 473Q576 526 571 559T549 611T508 637T451
644Q387 644 336 620T247 553T187 454T157 333Q151 277 159 226T192 137T258 75T358 52Q413 52 463 67T558 110Q572 96 574 72Q517 31 459 12T340 -9L302 -55Q339 -63 355 -87T363 -158Q354 -201 314 -222T216 -242Q212 -229 215 -210Q252 -210 275 -198T304 -160Q309
-131 294 -116T250 -101Q243 -95 240 -86T240 -63L286 -7Z" />
<glyph unicode="8;" glyph-name="Egrave" horiz-adv-x="549" d="M231 922Q251 930 276 931T325 924Q332 882 342 841T369 754Q362 751 352 751T334 756Q315 794 287 840T231 922ZM242 364H283Q314 364 336 367T373 380T396 405T409 446Q422 448 432 448T457
447Q451 422 446 399T436 336Q431 300 429 273T424 221Q410 223 399 225T378 234Q382 284 361 301T279 319H234L204 143Q199 111 199 92T207 63T232 49T277 45H281Q327 45 357 53T407 78T443 118T473 172Q487 170 498 165T518 150Q501 118 487 80T464 -3Q419 -1
373 -1T271 0Q198 0 139 0T19 -3Q19 20 26 40Q49 43 63 48T86 65T100 95T110 143L182 554Q186 579 186 594T179 617T161 629T129 636Q127 646 127 656T128 679Q180 677 224 677T295 676Q353 676 416 676T558 679Q553 641 551 596T551 516Q532 508 501 509Q500 541
496 564T477 602T435 624T359 631H287L242 364Z" />
<glyph unicode="9;" glyph-name="Eacute" horiz-adv-x="549" d="M242 364H283Q314 364 336 367T373 380T396 405T409 446Q422 448 432 448T457 447Q451 422 446 399T436 336Q431 300 429 273T424 221Q410 223 399 225T378 234Q382 284 361 301T279 319H234L204
143Q199 111 199 92T207 63T232 49T277 45H281Q327 45 357 53T407 78T443 118T473 172Q487 170 498 165T518 150Q501 118 487 80T464 -3Q419 -1 373 -1T271 0Q198 0 139 0T19 -3Q19 20 26 40Q49 43 63 48T86 65T100 95T110 143L182 554Q186 579 186 594T179 617T161
629T129 636Q127 646 127 656T128 679Q180 677 224 677T295 676Q353 676 416 676T558 679Q553 641 551 596T551 516Q532 508 501 509Q500 541 496 564T477 602T435 624T359 631H287L242 364ZM407 934Q437 942 464 940T510 925Q472 889 430 843T350 745Q328 747
314 759Q347 811 371 856T407 934Z" />
<glyph unicode="a;" glyph-name="Ecircumflex" horiz-adv-x="549" d="M377 923Q396 926 415 916Q438 880 463 846T515 779Q512 769 504 761T485 750Q457 773 428 793T367 831Q331 813 297 793T230 748Q224 757 222 769T221 793Q263 823 302 855T377 923ZM242
364H283Q314 364 336 367T373 380T396 405T409 446Q422 448 432 448T457 447Q451 422 446 399T436 336Q431 300 429 273T424 221Q410 223 399 225T378 234Q382 284 361 301T279 319H234L204 143Q199 111 199 92T207 63T232 49T277 45H281Q327 45 357 53T407 78T443
118T473 172Q487 170 498 165T518 150Q501 118 487 80T464 -3Q419 -1 373 -1T271 0Q198 0 139 0T19 -3Q19 20 26 40Q49 43 63 48T86 65T100 95T110 143L182 554Q186 579 186 594T179 617T161 629T129 636Q127 646 127 656T128 679Q180 677 224 677T295 676Q353
676 416 676T558 679Q553 641 551 596T551 516Q532 508 501 509Q500 541 496 564T477 602T435 624T359 631H287L242 364Z" />
<glyph unicode="b;" glyph-name="Edieresis" horiz-adv-x="549" d="M241 814Q249 858 296 858Q322 858 333 842T340 799Q327 750 284 750Q259 750 247 767T241 814ZM496 802Q491 777 477 764T439 751Q414 751 402 767T395 811Q403 858 453 858Q477 858 489
843T496 802ZM242 364H283Q314 364 336 367T373 380T396 405T409 446Q422 448 432 448T457 447Q451 422 446 399T436 336Q431 300 429 273T424 221Q410 223 399 225T378 234Q382 284 361 301T279 319H234L204 143Q199 111 199 92T207 63T232 49T277 45H281Q327
45 357 53T407 78T443 118T473 172Q487 170 498 165T518 150Q501 118 487 80T464 -3Q419 -1 373 -1T271 0Q198 0 139 0T19 -3Q19 20 26 40Q49 43 63 48T86 65T100 95T110 143L182 554Q186 579 186 594T179 617T161 629T129 636Q127 646 127 656T128 679Q180 677
224 677T295 676Q353 676 416 676T558 679Q553 641 551 596T551 516Q532 508 501 509Q500 541 496 564T477 602T435 624T359 631H287L242 364Z" />
<glyph unicode="c;" glyph-name="Igrave" horiz-adv-x="357" d="M137 922Q157 930 182 931T231 924Q238 882 248 841T275 754Q268 751 258 751T240 756Q221 794 193 840T137 922ZM189 549Q193 574 192 590T184 615T164 628T129 636Q127 646 127 656T128 679Q183
676 248 676Q310 676 370 679Q369 667 368 657T361 636Q342 633 329 628T308 614T293 589T283 549L210 127Q205 102 205 86T213 61T233 48T269 40Q274 20 271 -3Q211 0 150 0Q121 0 88 0T29 -3Q29 22 37 40Q57 42 70 46T92 60T106 86T116 127L189 549Z" />
<glyph unicode="d;" glyph-name="Iacute" horiz-adv-x="357" d="M313 934Q343 942 370 940T416 925Q378 889 336 843T256 745Q234 747 220 759Q253 811 277 856T313 934ZM189 549Q193 574 192 590T184 615T164 628T129 636Q127 646 127 656T128 679Q183 676
248 676Q310 676 370 679Q369 667 368 657T361 636Q342 633 329 628T308 614T293 589T283 549L210 127Q205 102 205 86T213 61T233 48T269 40Q274 20 271 -3Q211 0 150 0Q121 0 88 0T29 -3Q29 22 37 40Q57 42 70 46T92 60T106 86T116 127L189 549Z" />
<glyph unicode="e;" glyph-name="Icircumflex" horiz-adv-x="357" d="M283 923Q302 926 321 916Q344 880 369 846T421 779Q418 769 410 761T391 750Q363 773 334 793T273 831Q237 813 203 793T136 748Q130 757 128 769T127 793Q169 823 208 855T283 923ZM189
549Q193 574 192 590T184 615T164 628T129 636Q127 646 127 656T128 679Q183 676 248 676Q310 676 370 679Q369 667 368 657T361 636Q342 633 329 628T308 614T293 589T283 549L210 127Q205 102 205 86T213 61T233 48T269 40Q274 20 271 -3Q211 0 150 0Q121 0 88
0T29 -3Q29 22 37 40Q57 42 70 46T92 60T106 86T116 127L189 549Z" />
<glyph unicode="f;" glyph-name="Idieresis" horiz-adv-x="357" d="M148 814Q156 858 203 858Q229 858 240 842T247 799Q234 750 191 750Q166 750 154 767T148 814ZM403 802Q398 777 384 764T346 751Q321 751 309 767T302 811Q310 858 360 858Q384 858 396
843T403 802ZM189 549Q193 574 192 590T184 615T164 628T129 636Q127 646 127 656T128 679Q183 676 248 676Q310 676 370 679Q369 667 368 657T361 636Q342 633 329 628T308 614T293 589T283 549L210 127Q205 102 205 86T213 61T233 48T269 40Q274 20 271 -3Q211
0 150 0Q121 0 88 0T29 -3Q29 22 37 40Q57 42 70 46T92 60T106 86T116 127L189 549Z" />
<glyph unicode="&#xd0;" glyph-name="Eth" horiz-adv-x="725" d="M190 554Q194 579 193 594T184 618T163 631T130 637Q127 648 127 658T128 679Q160 677 197 677T266 676Q298 676 330 677T392 679Q437 679 482 673T567 652T640 611T694 546T721 451T713 323Q698
240 661 180T567 79T438 20T279 0H276Q249 0 217 0T152 0T87 -1T25 -3Q27 22 33 40Q55 43 69 48T93 65T107 95T118 143L147 306Q127 306 111 306T80 304Q81 331 91 349H154L190 554ZM211 133Q206 105 206 88T213 62T237 49T283 45Q344 45 397 60T493 107T565 191T609
315Q627 408 614 469T565 568T478 620T367 636Q347 636 330 634T296 628L248 349H314Q316 326 307 307H241L211 133Z" />
<glyph unicode="&#xd1;" glyph-name="Ntilde" horiz-adv-x="714" d="M191 601Q180 620 167 627T130 636Q125 654 128 679Q143 677 157 677T188 676Q231 676 257 679Q336 551 415 417T566 151Q597 323 626 499Q632 538 633 563T628 603T608 625T572 636Q570 646
570 656T571 679Q593 677 617 677T662 676Q685 676 712 676T759 679Q759 670 757 658T751 636Q734 631 723 623T703 598T688 555T675 489Q655 364 634 242T590 -4Q582 -7 571 -8T549 -9Q473 128 395 262T234 531Q220 443 205 357T172 182Q164 142 163 117T168 75T188
52T226 40Q231 23 228 -3Q198 -1 169 -1T119 0Q96 0 77 0T24 -3Q25 21 31 40Q50 43 63 50T87 73T104 112T119 172Q139 278 157 384T194 596L191 601ZM395 845Q413 845 429 839T460 824T488 810T516 803Q536 803 554 812T589 839Q601 834 607 819Q590 793 575 776T547
749T522 736T499 732Q482 732 466 738T435 753T405 768T373 775Q350 775 330 767T283 737Q271 745 273 761Q311 810 341 827T395 845Z" />
<glyph unicode="&#xd2;" glyph-name="Ograve" horiz-adv-x="721" d="M311 922Q331 930 356 931T405 924Q412 882 422 841T449 754Q442 751 432 751T414 756Q395 794 367 840T311 922ZM426 685Q498 685 557 660T655 585T708 463T704 296Q692 233 660 178T581 81T471
15T337 -9Q262 -9 203 19T107 97T56 218T59 375Q71 440 104 496T186 595T296 661T426 685ZM407 641Q362 641 322 621T250 565T196 482T163 382Q149 311 155 248T186 138T253 63T355 35Q404 35 445 54T517 109T570 191T602 294Q616 370 607 434T571 544T502 615T407
641Z" />
<glyph unicode="&#xd3;" glyph-name="Oacute" horiz-adv-x="721" d="M426 685Q498 685 557 660T655 585T708 463T704 296Q692 233 660 178T581 81T471 15T337 -9Q262 -9 203 19T107 97T56 218T59 375Q71 440 104 496T186 595T296 661T426 685ZM407 641Q362 641
322 621T250 565T196 482T163 382Q149 311 155 248T186 138T253 63T355 35Q404 35 445 54T517 109T570 191T602 294Q616 370 607 434T571 544T502 615T407 641ZM487 934Q517 942 544 940T590 925Q552 889 510 843T430 745Q408 747 394 759Q427 811 451 856T487
934Z" />
<glyph unicode="&#xd4;" glyph-name="Ocircumflex" horiz-adv-x="721" d="M426 685Q498 685 557 660T655 585T708 463T704 296Q692 233 660 178T581 81T471 15T337 -9Q262 -9 203 19T107 97T56 218T59 375Q71 440 104 496T186 595T296 661T426 685ZM407 641Q362
641 322 621T250 565T196 482T163 382Q149 311 155 248T186 138T253 63T355 35Q404 35 445 54T517 109T570 191T602 294Q616 370 607 434T571 544T502 615T407 641ZM457 923Q476 926 495 916Q518 880 543 846T595 779Q592 769 584 761T565 750Q537 773 508 793T447
831Q411 813 377 793T310 748Q304 757 302 769T301 793Q343 823 382 855T457 923Z" />
<glyph unicode="&#xd5;" glyph-name="Otilde" horiz-adv-x="721" d="M390 845Q408 845 424 839T455 824T483 810T511 803Q531 803 549 812T584 839Q596 834 602 819Q585 793 570 776T542 749T517 736T494 732Q477 732 461 738T430 753T400 768T368 775Q345 775
325 767T278 737Q266 745 268 761Q306 810 336 827T390 845ZM426 685Q498 685 557 660T655 585T708 463T704 296Q692 233 660 178T581 81T471 15T337 -9Q262 -9 203 19T107 97T56 218T59 375Q71 440 104 496T186 595T296 661T426 685ZM407 641Q362 641 322 621T250
565T196 482T163 382Q149 311 155 248T186 138T253 63T355 35Q404 35 445 54T517 109T570 191T602 294Q616 370 607 434T571 544T502 615T407 641Z" />
<glyph unicode="&#xd6;" glyph-name="Odieresis" horiz-adv-x="721" d="M426 685Q498 685 557 660T655 585T708 463T704 296Q692 233 660 178T581 81T471 15T337 -9Q262 -9 203 19T107 97T56 218T59 375Q71 440 104 496T186 595T296 661T426 685ZM407 641Q362
641 322 621T250 565T196 482T163 382Q149 311 155 248T186 138T253 63T355 35Q404 35 445 54T517 109T570 191T602 294Q616 370 607 434T571 544T502 615T407 641ZM321 814Q329 858 376 858Q402 858 413 842T420 799Q407 750 364 750Q339 750 327 767T321 814ZM576
802Q571 777 557 764T519 751Q494 751 482 767T475 811Q483 858 533 858Q557 858 569 843T576 802Z" />
<glyph unicode="&#xd7;" glyph-name="multiply" horiz-adv-x="618" d="M504 481Q519 477 529 470T547 448Q501 409 436 352T300 231L496 11Q485 0 471 -3T441 -5Q354 97 264 199Q201 143 141 89T30 -12Q14 -10 0 -3T-21 14L230 237Q182 291 134 345T36 453Q55
470 87 470L266 269L504 481Z" />
<glyph unicode="&#xd8;" glyph-name="Oslash" horiz-adv-x="721" d="M114 87Q72 138 57 211T59 375Q71 440 104 496T186 595T296 661T426 685Q538 685 613 627L666 685Q682 685 695 679T715 664L648 594Q691 545 707 471T704 296Q692 233 660 178T581 81T471 15T337
-9Q280 -9 233 7T148 53L93 -9Q77 -9 65 -3T48 15L114 87ZM556 566Q529 602 491 621T407 641Q362 641 322 621T250 565T196 482T163 382Q151 317 154 260T178 156L556 566ZM581 524Q488 426 390 319T202 113Q228 76 266 56T355 35Q404 35 445 54T517 109T570 191T602
294Q615 363 609 421T581 524Z" />
<glyph unicode="&#xd9;" glyph-name="Ugrave" horiz-adv-x="635" d="M150 554Q154 577 154 592T151 616T136 629T109 636Q105 653 108 679Q143 677 166 677T219 676Q251 676 276 676T339 679Q338 667 337 657T330 636Q307 634 292 630T268 615T253 588T242 544L193
260Q183 203 187 162T209 95T255 56T321 44Q395 44 443 96T509 246L556 514Q562 546 562 566T556 600T537 621T502 636Q498 655 501 679Q533 677 556 677T600 676Q612 676 622 676T644 676T669 677T700 679Q700 657 691 636Q670 629 656 621T633 599T618 563T605
504L561 255Q537 119 474 55T301 -9Q174 -9 126 61T99 256L150 554ZM308 922Q328 930 353 931T402 924Q409 882 419 841T446 754Q439 751 429 751T411 756Q392 794 364 840T308 922Z" />
<glyph unicode="&#xda;" glyph-name="Uacute" horiz-adv-x="635" d="M150 554Q154 577 154 592T151 616T136 629T109 636Q105 653 108 679Q143 677 166 677T219 676Q251 676 276 676T339 679Q338 667 337 657T330 636Q307 634 292 630T268 615T253 588T242 544L193
260Q183 203 187 162T209 95T255 56T321 44Q395 44 443 96T509 246L556 514Q562 546 562 566T556 600T537 621T502 636Q498 655 501 679Q533 677 556 677T600 676Q612 676 622 676T644 676T669 677T700 679Q700 657 691 636Q670 629 656 621T633 599T618 563T605
504L561 255Q537 119 474 55T301 -9Q174 -9 126 61T99 256L150 554ZM484 934Q514 942 541 940T587 925Q549 889 507 843T427 745Q405 747 391 759Q424 811 448 856T484 934Z" />
<glyph unicode="&#xdb;" glyph-name="Ucircumflex" horiz-adv-x="635" d="M150 554Q154 577 154 592T151 616T136 629T109 636Q105 653 108 679Q143 677 166 677T219 676Q251 676 276 676T339 679Q338 667 337 657T330 636Q307 634 292 630T268 615T253 588T242
544L193 260Q183 203 187 162T209 95T255 56T321 44Q395 44 443 96T509 246L556 514Q562 546 562 566T556 600T537 621T502 636Q498 655 501 679Q533 677 556 677T600 676Q612 676 622 676T644 676T669 677T700 679Q700 657 691 636Q670 629 656 621T633 599T618
563T605 504L561 255Q537 119 474 55T301 -9Q174 -9 126 61T99 256L150 554ZM454 923Q473 926 492 916Q515 880 540 846T592 779Q589 769 581 761T562 750Q534 773 505 793T444 831Q408 813 374 793T307 748Q301 757 299 769T298 793Q340 823 379 855T454 923Z"
/>
<glyph unicode="&#xdc;" glyph-name="Udieresis" horiz-adv-x="635" d="M318 814Q326 858 373 858Q399 858 410 842T417 799Q404 750 361 750Q336 750 324 767T318 814ZM573 802Q568 777 554 764T516 751Q491 751 479 767T472 811Q480 858 530 858Q554 858 566
843T573 802ZM150 554Q154 577 154 592T151 616T136 629T109 636Q105 653 108 679Q143 677 166 677T219 676Q251 676 276 676T339 679Q338 667 337 657T330 636Q307 634 292 630T268 615T253 588T242 544L193 260Q183 203 187 162T209 95T255 56T321 44Q395 44
443 96T509 246L556 514Q562 546 562 566T556 600T537 621T502 636Q498 655 501 679Q533 677 556 677T600 676Q612 676 622 676T644 676T669 677T700 679Q700 657 691 636Q670 629 656 621T633 599T618 563T605 504L561 255Q537 119 474 55T301 -9Q174 -9 126 61T99
256L150 554Z" />
<glyph unicode="&#xdd;" glyph-name="Yacute" horiz-adv-x="583" d="M277 293Q249 367 223 432T176 541Q163 569 154 586T138 614T123 628T104 637Q102 648 102 657T103 679Q131 677 159 677T214 676Q244 676 273 676T340 679Q340 667 338 657T331 635Q282 628
269 612T273 556Q293 511 314 457T354 347Q374 374 393 400T429 449T459 492T482 524Q519 579 517 603T469 636Q465 655 468 679Q493 677 514 677T564 676Q588 676 608 676T653 679Q653 657 644 636Q635 633 628 628T608 610T578 573T530 508Q497 461 457 407T372
296L341 122Q337 101 337 87T344 64T366 50T408 40Q413 19 410 -3Q378 -1 345 -1T282 0Q249 0 214 0T151 -3Q151 22 158 41Q183 45 198 50T223 65T238 91T249 132L277 293ZM468 934Q498 942 525 940T571 925Q533 889 491 843T411 745Q389 747 375 759Q408 811 432
856T468 934Z" />
<glyph unicode="&#xde;" glyph-name="Thorn" horiz-adv-x="576" d="M189 549Q193 574 192 590T184 615T164 628T129 636Q127 646 127 656T128 679Q183 676 248 676Q310 676 370 679Q369 667 368 657T361 636Q341 633 328 628T307 613T293 586T281 539Q307 540
334 540T386 540Q442 540 480 525T539 482T568 420T568 344Q562 310 542 276T490 214T412 169T311 151Q288 151 271 154T243 166Q238 182 244 198Q259 189 296 189Q324 189 352 196T405 220T447 268T473 343Q479 378 475 407T453 458T407 490T333 502Q317 502 305
501T274 495L210 127Q205 102 205 86T213 61T233 48T269 40Q274 20 271 -3Q211 0 150 0Q121 0 88 0T29 -3Q29 22 37 40Q57 42 70 46T92 60T106 86T116 127L189 549Z" />
<glyph unicode="&#xdf;" glyph-name="germandbls" horiz-adv-x="525" d="M124 452Q133 505 151 552T199 636T272 693T376 714Q420 714 446 702T485 670T500 626T498 580Q491 548 478 524T449 481T415 448T382 422T356 399T342 374Q337 351 346 333T372 297T408
262T443 222T467 172T469 106Q459 49 419 21T320 -7Q277 -7 250 5T202 35Q223 88 228 146Q239 149 249 151T270 152Q266 92 281 63T337 34Q363 34 379 47T401 88Q405 112 395 132T368 171T331 209T295 250T271 299T269 360Q273 382 285 397T314 426T348 451T383
477T413 510T431 556Q435 577 432 597T418 634T388 659T340 669Q299 669 272 618T221 447Q212 399 204 351T188 261T176 184T167 128Q154 45 133 -24T83 -142T19 -220T-58 -248Q-78 -248 -100 -239T-145 -212Q-146 -196 -144 -181T-138 -152Q-105 -161 -80 -164T-26
-168Q-7 -168 6 -160T29 -128T48 -59T68 59Q73 89 78 129T90 215T103 309T117 403Q81 409 44 409Q44 432 55 448H124V452Z" />
<glyph unicode="&#xe0;" glyph-name="agrave" horiz-adv-x="483" d="M364 147Q358 118 355 101T353 75T358 63T371 60Q382 60 394 66T426 90Q433 83 437 76T444 59Q420 31 390 11T333 -9Q299 -9 284 7T265 48T268 99T283 147H282Q268 119 248 92T205 42T155 5T100
-9Q50 -9 29 41T30 202Q42 260 67 308T127 392T206 447T299 467Q313 467 328 465T355 458Q370 458 386 460T412 467Q416 465 419 461T424 447T423 419T414 371L364 147ZM335 406Q309 416 274 416Q243 416 219 404T177 369T147 316T127 248Q109 163 117 118T156
72Q169 72 190 90T235 142T280 225T318 336L335 406ZM178 704Q198 712 223 713T272 706Q279 664 289 623T316 536Q309 533 299 533T281 538Q262 576 234 622T178 704Z" />
<glyph unicode="&#xe1;" glyph-name="aacute" horiz-adv-x="483" d="M364 147Q358 118 355 101T353 75T358 63T371 60Q382 60 394 66T426 90Q433 83 437 76T444 59Q420 31 390 11T333 -9Q299 -9 284 7T265 48T268 99T283 147H282Q268 119 248 92T205 42T155 5T100
-9Q50 -9 29 41T30 202Q42 260 67 308T127 392T206 447T299 467Q313 467 328 465T355 458Q370 458 386 460T412 467Q416 465 419 461T424 447T423 419T414 371L364 147ZM335 406Q309 416 274 416Q243 416 219 404T177 369T147 316T127 248Q109 163 117 118T156
72Q169 72 190 90T235 142T280 225T318 336L335 406ZM354 716Q384 724 411 722T457 707Q419 671 377 625T297 527Q275 529 261 541Q294 593 318 638T354 716Z" />
<glyph unicode="&#xe2;" glyph-name="acircumflex" horiz-adv-x="483" d="M364 147Q358 118 355 101T353 75T358 63T371 60Q382 60 394 66T426 90Q433 83 437 76T444 59Q420 31 390 11T333 -9Q299 -9 284 7T265 48T268 99T283 147H282Q268 119 248 92T205 42T155
5T100 -9Q50 -9 29 41T30 202Q42 260 67 308T127 392T206 447T299 467Q313 467 328 465T355 458Q370 458 386 460T412 467Q416 465 419 461T424 447T423 419T414 371L364 147ZM335 406Q309 416 274 416Q243 416 219 404T177 369T147 316T127 248Q109 163 117 118T156
72Q169 72 190 90T235 142T280 225T318 336L335 406ZM324 705Q343 708 362 698Q385 662 410 628T462 561Q459 551 451 543T432 532Q404 555 375 575T314 613Q278 595 244 575T177 530Q171 539 169 551T168 575Q210 605 249 637T324 705Z" />
<glyph unicode="&#xe3;" glyph-name="atilde" horiz-adv-x="483" d="M364 147Q358 118 355 101T353 75T358 63T371 60Q382 60 394 66T426 90Q433 83 437 76T444 59Q420 31 390 11T333 -9Q299 -9 284 7T265 48T268 99T283 147H282Q268 119 248 92T205 42T155 5T100
-9Q50 -9 29 41T30 202Q42 260 67 308T127 392T206 447T299 467Q313 467 328 465T355 458Q370 458 386 460T412 467Q416 465 419 461T424 447T423 419T414 371L364 147ZM335 406Q309 416 274 416Q243 416 219 404T177 369T147 316T127 248Q109 163 117 118T156
72Q169 72 190 90T235 142T280 225T318 336L335 406ZM257 627Q275 627 291 621T322 606T350 592T378 585Q398 585 416 594T451 621Q463 616 469 601Q452 575 437 558T409 531T384 518T361 514Q344 514 328 520T297 535T267 550T235 557Q212 557 192 549T145 519Q133
527 135 543Q173 592 203 609T257 627Z" />
<glyph unicode="&#xe4;" glyph-name="adieresis" horiz-adv-x="483" d="M364 147Q358 118 355 101T353 75T358 63T371 60Q382 60 394 66T426 90Q433 83 437 76T444 59Q420 31 390 11T333 -9Q299 -9 284 7T265 48T268 99T283 147H282Q268 119 248 92T205 42T155
5T100 -9Q50 -9 29 41T30 202Q42 260 67 308T127 392T206 447T299 467Q313 467 328 465T355 458Q370 458 386 460T412 467Q416 465 419 461T424 447T423 419T414 371L364 147ZM335 406Q309 416 274 416Q243 416 219 404T177 369T147 316T127 248Q109 163 117 118T156
72Q169 72 190 90T235 142T280 225T318 336L335 406ZM188 596Q196 640 243 640Q269 640 280 624T287 581Q274 532 231 532Q206 532 194 549T188 596ZM443 584Q438 559 424 546T386 533Q361 533 349 549T342 593Q350 640 400 640Q424 640 436 625T443 584Z" />
<glyph unicode="&#xe5;" glyph-name="aring" horiz-adv-x="483" d="M364 147Q358 118 355 101T353 75T358 63T371 60Q382 60 394 66T426 90Q433 83 437 76T444 59Q420 31 390 11T333 -9Q299 -9 284 7T265 48T268 99T283 147H282Q268 119 248 92T205 42T155 5T100
-9Q50 -9 29 41T30 202Q42 260 67 308T127 392T206 447T299 467Q313 467 328 465T355 458Q370 458 386 460T412 467Q416 465 419 461T424 447T423 419T414 371L364 147ZM335 406Q309 416 274 416Q243 416 219 404T177 369T147 316T127 248Q109 163 117 118T156
72Q169 72 190 90T235 142T280 225T318 336L335 406ZM220 625Q226 663 255 685T332 708Q379 708 403 680T419 605Q414 570 385 548T308 526Q260 526 236 553T220 625ZM273 620Q268 594 280 579T315 563Q334 563 347 574T363 606Q369 637 358 655T323 674Q305 674
292 659T273 620Z" />
<glyph unicode="&#xe6;" glyph-name="ae" horiz-adv-x="617" d="M282 148Q271 124 252 96T209 45T157 7T100 -9Q50 -9 29 41T30 202Q42 260 67 308T127 392T206 447T299 467Q313 467 328 465T355 458Q370 458 386 460T412 467Q418 465 421 459T423 437Q470 467
514 467Q544 467 564 458T594 433T607 397T606 356Q600 326 577 301T522 256T452 226T380 212Q377 184 377 158T384 111T403 79T438 66Q460 66 488 79T538 119Q553 108 559 90Q545 72 526 54T484 22T437 0T389 -9Q357 -9 336 4T301 38T284 88T283 148H282ZM335
406Q309 416 274 416Q243 416 219 404T177 369T147 316T127 248Q109 163 117 118T156 72Q169 72 190 90T235 142T280 225T318 336L335 406ZM384 249Q440 253 478 277T525 343Q527 355 526 367T520 389T505 406T481 413Q452 413 426 375T387 271L384 249Z" />
<glyph unicode="&#xe7;" glyph-name="ccedilla" horiz-adv-x="374" d="M104 -6Q72 1 55 24T31 80T26 150T36 228Q45 274 65 317T116 393T184 447T269 467Q298 467 315 462T348 446Q325 393 320 335Q312 331 301 329T277 327Q277 375 264 394T221 414Q206 414 193
404T167 375T146 332T132 280Q124 240 121 202T122 133T139 85T178 66Q207 66 234 81T281 118Q294 109 302 90Q273 52 234 27T159 -6L119 -55Q156 -63 172 -87T180 -158Q171 -201 131 -222T33 -242Q29 -229 32 -210Q69 -210 92 -198T121 -160Q126 -131 111 -116T67
-101Q60 -95 57 -86T57 -63L104 -6Z" />
<glyph unicode="&#xe8;" glyph-name="egrave" horiz-adv-x="360" d="M257 467Q287 467 307 458T337 433T350 397T349 356Q343 325 318 299T260 254T190 224T122 212Q119 186 119 160T126 113T145 79T181 66Q203 66 231 79T281 119Q296 108 302 90Q288 72 269 54T227
22T180 0T132 -9Q90 -9 67 11T33 65T24 139T34 221Q45 279 69 325T123 402T189 450T257 467ZM126 249Q151 250 175 256T218 275T251 304T268 343Q270 355 269 367T263 389T248 406T224 413Q195 413 169 375T130 271L126 249ZM136 704Q156 712 181 713T230 706Q237
664 247 623T274 536Q267 533 257 533T239 538Q220 576 192 622T136 704Z" />
<glyph unicode="&#xe9;" glyph-name="eacute" horiz-adv-x="360" d="M257 467Q287 467 307 458T337 433T350 397T349 356Q343 325 318 299T260 254T190 224T122 212Q119 186 119 160T126 113T145 79T181 66Q203 66 231 79T281 119Q296 108 302 90Q288 72 269 54T227
22T180 0T132 -9Q90 -9 67 11T33 65T24 139T34 221Q45 279 69 325T123 402T189 450T257 467ZM126 249Q151 250 175 256T218 275T251 304T268 343Q270 355 269 367T263 389T248 406T224 413Q195 413 169 375T130 271L126 249ZM311 716Q341 724 368 722T414 707Q376
671 334 625T254 527Q232 529 218 541Q251 593 275 638T311 716Z" />
<glyph unicode="&#xea;" glyph-name="ecircumflex" horiz-adv-x="360" d="M257 467Q287 467 307 458T337 433T350 397T349 356Q343 325 318 299T260 254T190 224T122 212Q119 186 119 160T126 113T145 79T181 66Q203 66 231 79T281 119Q296 108 302 90Q288 72
269 54T227 22T180 0T132 -9Q90 -9 67 11T33 65T24 139T34 221Q45 279 69 325T123 402T189 450T257 467ZM126 249Q151 250 175 256T218 275T251 304T268 343Q270 355 269 367T263 389T248 406T224 413Q195 413 169 375T130 271L126 249ZM281 705Q300 708 319 698Q342
662 367 628T419 561Q416 551 408 543T389 532Q361 555 332 575T271 613Q235 595 201 575T134 530Q128 539 126 551T125 575Q167 605 206 637T281 705Z" />
<glyph unicode="&#xeb;" glyph-name="edieresis" horiz-adv-x="360" d="M257 467Q287 467 307 458T337 433T350 397T349 356Q343 325 318 299T260 254T190 224T122 212Q119 186 119 160T126 113T145 79T181 66Q203 66 231 79T281 119Q296 108 302 90Q288 72 269
54T227 22T180 0T132 -9Q90 -9 67 11T33 65T24 139T34 221Q45 279 69 325T123 402T189 450T257 467ZM126 249Q151 250 175 256T218 275T251 304T268 343Q270 355 269 367T263 389T248 406T224 413Q195 413 169 375T130 271L126 249ZM402 596Q410 640 457 640Q483
640 494 624T501 581Q488 532 445 532Q420 532 408 549T402 596ZM657 584Q652 559 638 546T600 533Q575 533 563 549T556 593Q564 640 614 640Q638 640 650 625T657 584Z" />
<glyph unicode="&#xec;" glyph-name="igrave" horiz-adv-x="247" d="M80 279Q91 317 95 338T96 371T79 385T40 388Q39 410 46 426Q58 427 74 431T106 442T137 454T161 467Q192 454 198 424T188 331L133 138Q126 114 123 99T121 75T126 64T138 61Q148 61 161 68T190
90Q205 80 208 58Q179 26 151 9T94 -9Q44 -9 33 30T39 135L80 279ZM307 704Q327 712 352 713T401 706Q408 664 418 623T445 536Q438 533 428 533T410 538Q391 576 363 622T307 704Z" />
<glyph unicode="&#xed;" glyph-name="iacute" horiz-adv-x="247" d="M80 279Q91 317 95 338T96 371T79 385T40 388Q39 410 46 426Q58 427 74 431T106 442T137 454T161 467Q192 454 198 424T188 331L133 138Q126 114 123 99T121 75T126 64T138 61Q148 61 161 68T190
90Q205 80 208 58Q179 26 151 9T94 -9Q44 -9 33 30T39 135L80 279ZM226 716Q256 724 283 722T329 707Q291 671 249 625T169 527Q147 529 133 541Q166 593 190 638T226 716Z" />
<glyph unicode="&#xee;" glyph-name="icircumflex" horiz-adv-x="247" d="M80 279Q91 317 95 338T96 371T79 385T40 388Q39 410 46 426Q58 427 74 431T106 442T137 454T161 467Q192 454 198 424T188 331L133 138Q126 114 123 99T121 75T126 64T138 61Q148 61 161
68T190 90Q205 80 208 58Q179 26 151 9T94 -9Q44 -9 33 30T39 135L80 279ZM453 705Q472 708 491 698Q514 662 539 628T591 561Q588 551 580 543T561 532Q533 555 504 575T443 613Q407 595 373 575T306 530Q300 539 298 551T297 575Q339 605 378 637T453 705Z" />
<glyph unicode="&#xef;" glyph-name="idieresis" horiz-adv-x="247" d="M80 279Q91 317 95 338T96 371T79 385T40 388Q39 410 46 426Q58 427 74 431T106 442T137 454T161 467Q192 454 198 424T188 331L133 138Q126 114 123 99T121 75T126 64T138 61Q148 61 161
68T190 90Q205 80 208 58Q179 26 151 9T94 -9Q44 -9 33 30T39 135L80 279ZM317 596Q325 640 372 640Q398 640 409 624T416 581Q403 532 360 532Q335 532 323 549T317 596ZM572 584Q567 559 553 546T515 533Q490 533 478 549T471 593Q479 640 529 640Q553 640 565
625T572 584Z" />
<glyph unicode="&#xf0;" glyph-name="eth" horiz-adv-x="437" d="M433 728Q437 714 438 700T437 678Q416 668 392 657T342 632Q375 594 393 554T419 473T425 388T414 300Q401 234 372 177T303 79T217 15T126 -9Q101 -9 79 3T42 41T24 106T30 202Q42 260 67 308T127
392T206 447T299 467Q307 467 316 466T335 463Q333 503 323 538T291 607Q260 591 228 574T162 539Q157 553 156 566T157 589L263 642Q231 680 174 717Q178 725 186 732T202 743Q265 706 310 666L433 728ZM184 60Q202 60 220 72T256 112T289 182T316 289Q323 321
327 350T333 406Q309 416 274 416Q243 416 219 404T177 369T147 316T127 248Q108 160 125 110T184 60Z" />
<glyph unicode="&#xf1;" glyph-name="ntilde" horiz-adv-x="518" d="M409 153Q401 119 397 100T393 72T395 61T405 59Q416 59 432 68T461 90Q475 76 479 58Q446 24 419 8T364 -9Q334 -9 320 2T303 34T304 85T317 152L344 271Q353 309 354 333T353 372T341 391T321
397Q306 397 282 378T232 323T185 238T152 130L127 0H36L91 291Q97 326 99 345T96 374T78 386T40 388Q40 399 40 408T46 426Q58 427 76 431T115 442T153 454T182 467Q212 457 203 402Q195 359 186 331T165 277H166L182 311Q194 335 216 362T265 413T322 452T378
467Q394 467 410 459T438 430T450 372T438 275L409 153ZM267 627Q285 627 301 621T332 606T360 592T388 585Q408 585 426 594T461 621Q473 616 479 601Q462 575 447 558T419 531T394 518T371 514Q354 514 338 520T307 535T277 550T245 557Q222 557 202 549T155
519Q143 527 145 543Q183 592 213 609T267 627Z" />
<glyph unicode="&#xf2;" glyph-name="ograve" horiz-adv-x="455" d="M272 467Q315 467 347 451T399 403T424 329T420 234Q410 179 388 135T334 58T263 9T179 -9Q136 -9 105 7T54 52T29 123T33 215Q44 272 66 318T120 398T190 449T272 467ZM259 418Q236 418 216
405T177 366T146 306T124 228Q107 142 124 90T186 38Q209 38 230 51T270 89T302 148T324 224Q340 311 323 364T259 418ZM160 704Q180 712 205 713T254 706Q261 664 271 623T298 536Q291 533 281 533T263 538Q244 576 216 622T160 704Z" />
<glyph unicode="&#xf3;" glyph-name="oacute" horiz-adv-x="455" d="M272 467Q315 467 347 451T399 403T424 329T420 234Q410 179 388 135T334 58T263 9T179 -9Q136 -9 105 7T54 52T29 123T33 215Q44 272 66 318T120 398T190 449T272 467ZM259 418Q236 418 216
405T177 366T146 306T124 228Q107 142 124 90T186 38Q209 38 230 51T270 89T302 148T324 224Q340 311 323 364T259 418ZM336 716Q366 724 393 722T439 707Q401 671 359 625T279 527Q257 529 243 541Q276 593 300 638T336 716Z" />
<glyph unicode="&#xf4;" glyph-name="ocircumflex" horiz-adv-x="455" d="M272 467Q315 467 347 451T399 403T424 329T420 234Q410 179 388 135T334 58T263 9T179 -9Q136 -9 105 7T54 52T29 123T33 215Q44 272 66 318T120 398T190 449T272 467ZM259 418Q236 418
216 405T177 366T146 306T124 228Q107 142 124 90T186 38Q209 38 230 51T270 89T302 148T324 224Q340 311 323 364T259 418ZM306 705Q325 708 344 698Q367 662 392 628T444 561Q441 551 433 543T414 532Q386 555 357 575T296 613Q260 595 226 575T159 530Q153 539
151 551T150 575Q192 605 231 637T306 705Z" />
<glyph unicode="&#xf5;" glyph-name="otilde" horiz-adv-x="455" d="M272 467Q315 467 347 451T399 403T424 329T420 234Q410 179 388 135T334 58T263 9T179 -9Q136 -9 105 7T54 52T29 123T33 215Q44 272 66 318T120 398T190 449T272 467ZM259 418Q236 418 216
405T177 366T146 306T124 228Q107 142 124 90T186 38Q209 38 230 51T270 89T302 148T324 224Q340 311 323 364T259 418ZM239 627Q257 627 273 621T304 606T332 592T360 585Q380 585 398 594T433 621Q445 616 451 601Q434 575 419 558T391 531T366 518T343 514Q326
514 310 520T279 535T249 550T217 557Q194 557 174 549T127 519Q115 527 117 543Q155 592 185 609T239 627Z" />
<glyph unicode="&#xf6;" glyph-name="odieresis" horiz-adv-x="455" d="M272 467Q315 467 347 451T399 403T424 329T420 234Q410 179 388 135T334 58T263 9T179 -9Q136 -9 105 7T54 52T29 123T33 215Q44 272 66 318T120 398T190 449T272 467ZM259 418Q236 418
216 405T177 366T146 306T124 228Q107 142 124 90T186 38Q209 38 230 51T270 89T302 148T324 224Q340 311 323 364T259 418ZM427 596Q435 640 482 640Q508 640 519 624T526 581Q513 532 470 532Q445 532 433 549T427 596ZM682 584Q677 559 663 546T625 533Q600
533 588 549T581 593Q589 640 639 640Q663 640 675 625T682 584Z" />
<glyph unicode="&#xf7;" glyph-name="divide" horiz-adv-x="500" d="M339 405Q334 382 321 369T285 356Q258 356 244 373T236 420Q240 440 255 453T292 467Q315 467 329 450T339 405ZM480 287Q478 257 464 235Q416 235 362 235T253 235T142 234T35 232Q33 266
48 287H480ZM290 105Q285 82 272 69T236 56Q209 56 195 73T187 120Q191 140 206 153T243 167Q266 167 280 150T290 105Z" />
<glyph unicode="&#xf8;" glyph-name="oslash" horiz-adv-x="466" d="M429 484Q458 487 477 471Q460 454 443 435T405 395Q439 333 421 234Q411 179 389 135T335 58T264 9T180 -9Q116 -9 78 26L33 -27Q21 -27 9 -22T-10 -7L50 60Q16 120 34 215Q45 272 67 318T121
398T191 449T273 467Q306 467 332 457T379 429L429 484ZM323 366Q306 418 260 418Q237 418 217 405T178 366T147 306T125 228Q114 174 117 135L323 366ZM325 224Q330 250 332 272T332 315Q281 258 228 198T127 83Q146 38 187 38Q210 38 231 51T271 89T303 148T325
224Z" />
<glyph unicode="&#xf9;" glyph-name="ugrave" horiz-adv-x="508" d="M308 151Q296 126 277 98T232 46T179 7T122 -9Q87 -9 71 12T52 68T54 143T70 225Q85 285 91 318T95 366T79 385T41 388Q39 397 40 407T46 426Q57 427 75 431T114 442T151 454T179 467Q190 460
195 452T200 420T188 349T157 218Q119 65 174 65Q188 65 211 81T259 132T306 217T342 337L365 458H456L407 210Q396 157 391 127T385 82T388 64T401 60Q412 60 422 67T450 91Q457 85 461 77T469 59Q445 31 415 11T357 -9Q311 -9 298 22T294 103Q299 129 310 151H308ZM165
704Q185 712 210 713T259 706Q266 664 276 623T303 536Q296 533 286 533T268 538Q249 576 221 622T165 704Z" />
<glyph unicode="&#xfa;" glyph-name="uacute" horiz-adv-x="508" d="M308 151Q296 126 277 98T232 46T179 7T122 -9Q87 -9 71 12T52 68T54 143T70 225Q85 285 91 318T95 366T79 385T41 388Q39 397 40 407T46 426Q57 427 75 431T114 442T151 454T179 467Q190 460
195 452T200 420T188 349T157 218Q119 65 174 65Q188 65 211 81T259 132T306 217T342 337L365 458H456L407 210Q396 157 391 127T385 82T388 64T401 60Q412 60 422 67T450 91Q457 85 461 77T469 59Q445 31 415 11T357 -9Q311 -9 298 22T294 103Q299 129 310 151H308ZM341
716Q371 724 398 722T444 707Q406 671 364 625T284 527Q262 529 248 541Q281 593 305 638T341 716Z" />
<glyph unicode="&#xfb;" glyph-name="ucircumflex" horiz-adv-x="508" d="M308 151Q296 126 277 98T232 46T179 7T122 -9Q87 -9 71 12T52 68T54 143T70 225Q85 285 91 318T95 366T79 385T41 388Q39 397 40 407T46 426Q57 427 75 431T114 442T151 454T179 467Q190
460 195 452T200 420T188 349T157 218Q119 65 174 65Q188 65 211 81T259 132T306 217T342 337L365 458H456L407 210Q396 157 391 127T385 82T388 64T401 60Q412 60 422 67T450 91Q457 85 461 77T469 59Q445 31 415 11T357 -9Q311 -9 298 22T294 103Q299 129 310
151H308ZM311 705Q330 708 349 698Q372 662 397 628T449 561Q446 551 438 543T419 532Q391 555 362 575T301 613Q265 595 231 575T164 530Q158 539 156 551T155 575Q197 605 236 637T311 705Z" />
<glyph unicode="&#xfc;" glyph-name="udieresis" horiz-adv-x="508" d="M308 151Q296 126 277 98T232 46T179 7T122 -9Q87 -9 71 12T52 68T54 143T70 225Q85 285 91 318T95 366T79 385T41 388Q39 397 40 407T46 426Q57 427 75 431T114 442T151 454T179 467Q190
460 195 452T200 420T188 349T157 218Q119 65 174 65Q188 65 211 81T259 132T306 217T342 337L365 458H456L407 210Q396 157 391 127T385 82T388 64T401 60Q412 60 422 67T450 91Q457 85 461 77T469 59Q445 31 415 11T357 -9Q311 -9 298 22T294 103Q299 129 310
151H308ZM175 596Q183 640 230 640Q256 640 267 624T274 581Q261 532 218 532Q193 532 181 549T175 596ZM430 584Q425 559 411 546T373 533Q348 533 336 549T329 593Q337 640 387 640Q411 640 423 625T430 584Z" />
<glyph unicode="&#xfd;" glyph-name="yacute" horiz-adv-x="447" d="M291 716Q321 724 348 722T394 707Q356 671 314 625T234 527Q212 529 198 541Q231 593 255 638T291 716ZM118 467Q130 463 138 458T151 442T161 416T171 372Q188 284 197 208T210 50Q276 150
304 220T333 333Q333 354 322 368T277 387Q269 404 271 424Q284 428 299 433T327 445T352 457T370 468Q398 457 411 436T424 389Q424 326 378 237T240 17Q180 -70 139 -122T68 -202T15 -239T-35 -248Q-82 -248 -124 -212Q-126 -196 -124 -181T-117 -152Q-94 -160
-67 -164T-16 -168Q-1 -168 14 -164T47 -147T86 -113T135 -54Q129 63 116 163T85 326Q80 344 76 356T64 376T44 386T13 388Q11 411 18 426Q43 429 72 442T118 467Z" />
<glyph unicode="&#xfe;" glyph-name="thorn" horiz-adv-x="451" d="M156 286Q168 316 188 348T234 406T289 450T350 468Q400 468 421 418T420 257Q408 199 383 151T323 67T244 12T151 -8Q131 -8 108 -3Q109 -38 102 -77L72 -245H-19L118 534Q124 569 126 588T123
617T104 629T67 631Q67 642 67 651T73 669Q85 670 103 674T141 685T179 697T208 710Q238 700 229 646Q216 574 207 522T189 430T173 356T154 286H156ZM115 53Q141 43 176 43Q207 43 231 55T273 90T303 143T323 211Q341 296 333 341T294 387Q281 387 260 369T215
317T169 234T132 123L115 53Z" />
<glyph unicode="&#xff;" glyph-name="ydieresis" horiz-adv-x="447" d="M382 596Q390 640 437 640Q463 640 474 624T481 581Q468 532 425 532Q400 532 388 549T382 596ZM637 584Q632 559 618 546T580 533Q555 533 543 549T536 593Q544 640 594 640Q618 640 630
625T637 584ZM118 467Q130 463 138 458T151 442T161 416T171 372Q188 284 197 208T210 50Q276 150 304 220T333 333Q333 354 322 368T277 387Q269 404 271 424Q284 428 299 433T327 445T352 457T370 468Q398 457 411 436T424 389Q424 326 378 237T240 17Q180 -70
139 -122T68 -202T15 -239T-35 -248Q-82 -248 -124 -212Q-126 -196 -124 -181T-117 -152Q-94 -160 -67 -164T-16 -168Q-1 -168 14 -164T47 -147T86 -113T135 -54Q129 63 116 163T85 326Q80 344 76 356T64 376T44 386T13 388Q11 411 18 426Q43 429 72 442T118 467Z"
/>
</font>
</defs>
</svg>
